<?xml version="1.0" encoding="utf-8"?>
<!-- Generator: Adobe Illustrator 19.2.0, SVG Export Plug-In . SVG Version: 6.00 Build 0)  -->
<svg version="1.1" id="Слой_1" xmlns="http://www.w3.org/2000/svg" xmlns:xlink="http://www.w3.org/1999/xlink" x="0px" y="0px"
	 viewBox="0 0 30 34.8" style="enable-background:new 0 0 30 34.8;" xml:space="preserve">
<style type="text/css">
	.st0{fill:#181818;}
</style>
<g>
	<path class="st0" d="M22,8.5c0,0-4.5,0.1-5.9,2.5c-0.1,0.1-0.4,0.3-1.1,0.3c-0.2,0-0.4,0-0.6-0.1c-0.1-1.1-0.6-6.7-3.2-8.2
		C11,2.9,10.7,3,10.6,3.2c-0.1,0.2-0.1,0.5,0.2,0.7c1.6,1,2.4,4.3,2.6,6.5C11.8,8.7,8.5,8.5,8,8.5c0,0,0,0,0,0c-7.1,0-8,5.3-8,11
		c0,9.5,3.1,15.3,8,15.3c0.7,0,1.5-0.1,2.3-0.4l0,0l0,0c0,0,1.8-0.7,4.5-0.7c1.6,0,3.2,0.3,4.8,0.8c0.7,0.2,1.4,0.3,2.1,0.3
		c5.7,0,8.2-7.7,8.2-15.3C30,13.8,29,8.5,22,8.5z M21.8,33.8c-0.6,0-1.2-0.1-1.8-0.3c-1.9-0.6-3.6-0.8-5.1-0.8c-3,0-4.9,0.8-4.9,0.8
		c-0.7,0.2-1.3,0.3-2,0.3c-4.7,0-7-6.4-7-14.3c0-5.9,1-10,7-10c0,0,3.9,0.2,5,2c0.3,0.5,1.2,0.8,2,0.8c0.8,0,1.7-0.3,2-0.8
		c1-1.9,4.9-2,5-2c6.1,0,7,4.2,7,10C29,26.7,26.6,33.8,21.8,33.8z"/>
	<path class="st0" d="M16,7.9C16.2,7.9,16.4,8,16.6,8c1.3,0,2.4-1.6,3.1-3.1c0.8-1.8,1.1-4.1-0.3-4.7C19.1,0,18.9,0,18.7,0h0
		c-1.3,0-2.4,1.6-3.1,3.1C14.9,4.9,14.5,7.2,16,7.9z M16.6,3.5C17.2,2.1,18.1,1,18.7,1c0.1,0,0.1,0,0.2,0c0.6,0.3,0.5,1.8-0.2,3.4
		C18.1,5.9,17.2,7,16.6,7c-0.1,0-0.1,0-0.2,0C15.8,6.7,15.9,5.2,16.6,3.5z"/>
	<path class="st0" d="M8.2,28c0,0-2.7-1.2-2.7-7.5c0-3.6,0.9-4.8,1.4-5.2c0.5-0.4,0.9-0.3,1-0.3c0.3,0.1,0.5-0.1,0.6-0.4
		c0.1-0.3-0.1-0.5-0.3-0.6c-0.1,0-0.9-0.2-1.8,0.4c-1.2,0.9-1.8,2.9-1.8,6c-0.1,7.1,3.2,8.4,3.3,8.5c0.1,0,0.1,0,0.2,0
		c0.2,0,0.4-0.1,0.5-0.3C8.6,28.4,8.4,28.1,8.2,28z"/>
</g>
</svg>
