<?xml version="1.0" encoding="utf-8"?>
<!-- Generator: Adobe Illustrator 19.2.0, SVG Export Plug-In . SVG Version: 6.00 Build 0)  -->
<svg version="1.1" id="Слой_1" xmlns="http://www.w3.org/2000/svg" xmlns:xlink="http://www.w3.org/1999/xlink" x="0px" y="0px"
	 viewBox="0 0 24.3 39.7" style="enable-background:new 0 0 24.3 39.7;" xml:space="preserve">
<style type="text/css">
	.st0{fill:#E9C5BA;}
	.st1{fill:#CBCBCB;}
	.st2{fill:#4C384B;}
	.st3{fill:#876C7C;}
	.st4{fill:#E0E0E0;}
	.st5{fill:#BCBCBC;}
</style>
<rect x="1" y="0.4" transform="matrix(0.9082 -0.4185 0.4185 0.9082 -0.7949 1.264)" class="st0" width="3" height="4"/>
<path class="st1" d="M10.1,15.4c-2.3-0.1-3.1-1.9-3.1-1.9l-1.3-2.7L0.6,4.1L0,10.2l1.3,2.7l1.3,2.7c0,0,0.9,1.8-0.6,3.6
	c-1.3,1.6-0.6,3.6-0.6,3.6l5.9,12.7l5.2,4.2l0.7-22.3C13.2,17.3,12.3,15.5,10.1,15.4z"/>
<path class="st2" d="M12.8,14.2c-2.3-0.1-3.1-1.9-3.1-1.9L8.5,9.6L5.2,2.3L0.6,4.4L4,11.7l1.3,2.7c0,0,0.9,1.8-0.6,3.6
	c-1.3,1.6-0.6,3.6-0.6,3.6l8.4,18.2l11.8-5.4l-8.4-18.2C15.9,16.1,15,14.3,12.8,14.2z"/>
<path class="st3" d="M12.4,15.5c-2.3-0.1-3.1-1.9-3.1-1.9L8,10.9L4.3,2.7L3.4,3.1l3.8,8.2L8.4,14c0,0,0.2,0.3,1,2.2
	c0.6,1.4,1.9,1.5,2.6,1.6c0.9,0.2,2,1.2,2.4,2.1l7.1,15.5l1.8-0.8l-8-17.3C15.4,17.4,14.5,15.6,12.4,15.5z"/>
<path class="st2" d="M0.6,4.9c-0.2,0-0.4-0.1-0.5-0.3c-0.1-0.3,0-0.5,0.2-0.7L5,1.9c0.3-0.1,0.5,0,0.7,0.2c0.1,0.3,0,0.5-0.2,0.7
	L0.8,4.9C0.8,4.9,0.7,4.9,0.6,4.9z"/>
<rect x="7.9" y="23.1" transform="matrix(0.9082 -0.4185 0.4185 0.9082 -9.6788 7.9857)" class="st4" width="11" height="6"/>
<g>
	<rect x="9.9" y="25.1" transform="matrix(0.9082 -0.4185 0.4185 0.9082 -9.6788 7.9857)" class="st4" width="7" height="2"/>
	<path class="st5" d="M16.1,23.7l0.8,1.8l-6.4,2.9l-0.8-1.8L16.1,23.7 M16.6,22.4l-0.9,0.4l-6.4,2.9l-0.9,0.4L8.9,27l0.8,1.8
		l0.4,0.9l0.9-0.4l6.4-2.9l0.9-0.4l-0.4-0.9L17,23.3L16.6,22.4L16.6,22.4z"/>
</g>
</svg>
