<?xml version="1.0" encoding="utf-8"?>
<!-- Generator: Adobe Illustrator 19.2.0, SVG Export Plug-In . SVG Version: 6.00 Build 0)  -->
<svg version="1.1" id="Слой_1" xmlns="http://www.w3.org/2000/svg" xmlns:xlink="http://www.w3.org/1999/xlink" x="0px" y="0px"
	 viewBox="0 0 65.7 69.7" style="enable-background:new 0 0 65.7 69.7;" xml:space="preserve">
<style type="text/css">
	.st0{fill:#E6C3B8;}
	.st1{fill:#7E4241;}
	.st2{fill:#CC504B;}
	.st3{fill:#2A1F2F;}
	.st4{fill:#201600;}
	.st5{fill:#C5625A;}
	.st6{fill:#41384D;}
	.st7{display:none;fill:#FFFFFF;}
	.st8{fill:#FFFFFF;}
	.st9{display:none;fill:#252525;}
	.st10{fill:#262626;}
</style>
<path class="st0" d="M64.8,49.2c0-0.5-0.3-2.7-0.8-2.7c-0.7,0-0.5,1.9-0.9,1.9s0.3-3.1-0.8-3.1c-0.8,0-0.7,3.1-1,3.1
	c-0.4,0,0.2-3.1-0.6-3.1c-0.7,0-0.9,1.9-0.9,2.1c0,0.9-0.1,1.7-0.1,2.5l-0.1-0.2c-0.1-0.1-0.2-0.4-0.2-0.5c-0.2-0.5-0.9-1.4-1.4-1.2
	c-0.5,0.1-0.5,0.6-0.3,1.3l1.8,4.3c-0.6,5.6-1.3,8.2-1.9,9.7c-0.8,0.9-2.4,0.9-3.4,0.7l-28.6-9.2c-1.3-0.4-2.7,0.3-3.1,1.6
	c-0.4,1.3,0.3,2.7,1.6,3.1l29.4,9.5c0.9,0.4,1.9,0.6,3.1,0.6c1.9,0,3.9-0.8,5.1-3c1.2-2.5,2.5-3.7,3.2-13c0-0.6,0.1-1.2,0.1-1.8
	c0-0.7,0.1-1.4,0.1-2.2C64.8,49.5,64.8,49.2,64.8,49.2z"/>
<path class="st1" d="M41,59.9c-2.7-0.9-5.6-1.9-8.3-2.8c-1.3-0.4-2.7,0.2-3.2,1.6c-0.4,1.3,0.2,2.7,1.6,3.2c2.4,0.8,5.3,1.8,8.2,2.8
	"/>
<path class="st2" d="M10.3,48.1c0,0,8,13.5,31.1,6.8c0,0-3.2,7.5-18.1,14.6C9.5,59,10.3,48.1,10.3,48.1z"/>
<path class="st3" d="M50.3,15.4c-3.7,4.9-6.3,6.6-18.3,7.8c-0.6,0.1-1.3,0.2-1.9,0.3c2.5-6.5,8-22.8-0.1-23.3
	c-14.1-0.8-13.4,8-13.4,8l1.1,13.7c-6.1-2.1-10.3-5.7-10.4-7.2C3.9,9.4-0.2,14.3,0,16.1c1.1,12.6,11.2,17.8,11.2,17.8
	c3.8-6.1,8-8.8,14.3-9.1l3.6,1.3c0,0,0.2-0.4,0.5-1.1C43.2,26.2,44.4,35,44.4,35C57.1,25.8,50.3,15.4,50.3,15.4z"/>
<circle class="st0" cx="27.8" cy="42.4" r="19.2"/>
<ellipse class="st4" cx="24.5" cy="35" rx="1.2" ry="2.3"/>
<ellipse class="st4" cx="41.5" cy="36" rx="1.2" ry="2.3"/>
<ellipse class="st5" cx="32.9" cy="40.1" rx="2.7" ry="1.8"/>
<path class="st6" d="M7.4,14.8c0,0,5.3,17.3,20.8,15.8c16.2-1.5,20.6-9.3,22.8-13.8c-0.3-3.8-5.5-4.7-6.3-2.2
	c-1.5,4.9-6.3,6.3-6.3,6.3l-0.5-10.7c0,0,0.4-11.4-10-10.2c-7.1,0.9-6.8,7.5-6.8,7.5l1.2,14.7C22.2,22.3,11.7,18.8,7.4,14.8z"/>
<ellipse class="st3" cx="29.3" cy="50.8" rx="11" ry="6.8"/>
<g>
	<path class="st7" d="M37.4,51.9l0-0.3c-0.9-0.2-1.9-0.4-3-0.4v0.7L37.4,51.9z"/>
	<path class="st8" d="M27.3,47.2c1.4,0,1.4-1.1,1.4-1.1l0-2.2c-1,0-2,0.1-3,0.3v1.9C25.8,46.2,26,47.2,27.3,47.2z"/>
</g>
<g>
	<path class="st9" d="M32.9,44.4l0,1.9c0,0-0.1,1.1-1.4,1.1S30,46.3,30,46.3v-2.2c-0.2,0-0.4,0-0.6,0c-6.1,0-11,3-11,6.8
		s4.9,6.8,11,6.8s11-3,11-6.8C40.3,47.9,37.2,45.3,32.9,44.4z"/>
	<path class="st7" d="M32.9,43.1c-1,0-2,0.1-3,0.3v0.6c1,0,2,0.2,3,0.4L32.9,43.1z"/>
	<path class="st8" d="M31.5,47.3c1.4,0,1.4-1.1,1.4-1.1l0-1.9C32,44.1,31,44,30,44v2.2C30,46.2,30.1,47.3,31.5,47.3z"/>
</g>
<path class="st10" d="M62.9,49.2c0,0-3.6,11.6-8.7,11.7c-5.1,0.1-5.3-3.5-5.3-3.5l3-6.6c0,0,0.5-1.1,1.5-1c1,0.2,2.8,0.5,2.8,0.5
	s2.9-4.6,2.8-8.4l-2.6-1.3c0,0-0.9-0.4-0.7-1.6c0.2-1,1.1-4.9,1.3-5.9c0.1-0.3,0.2-0.5,0.3-0.7c0.5-0.8,2.1-2.2,5.8-0.2
	C69,34,62.9,49.2,62.9,49.2z"/>
<path class="st0" d="M61.2,58.2l-2.8-7.3c-0.2-0.7-0.1-1.2,0.3-1.3c0.5-0.1,1.2,0.7,1.4,1.2l2.3,4.4"/>
<path class="st0" d="M62,53.9l-2.8-7.3c-0.2-0.7-0.1-1.2,0.3-1.3c0.5-0.1,1.2,0.7,1.4,1.2l2.3,4.4"/>
<path class="st0" d="M63.3,50.4l-2.8-6.9c-0.2-0.7-0.1-1.2,0.3-1.3c0.5-0.1,1.2,0.7,1.4,1.2l1.9,3.1"/>
</svg>
