<?xml version="1.0" encoding="utf-8"?>
<!-- Generator: Adobe Illustrator 19.2.0, SVG Export Plug-In . SVG Version: 6.00 Build 0)  -->
<svg version="1.1" id="Слой_1" xmlns="http://www.w3.org/2000/svg" xmlns:xlink="http://www.w3.org/1999/xlink" x="0px" y="0px"
	 viewBox="0 0 30.5 40" style="enable-background:new 0 0 30.5 40;" xml:space="preserve">
<style type="text/css">
	.st0{fill:#CCCCCC;}
	.st1{fill:#DB4531;}
	.st2{fill:#700900;}
	.st3{fill:#911707;}
	.st4{fill:none;stroke:#E57565;stroke-linecap:round;stroke-miterlimit:10;}
	.st5{fill:#1B1919;}
	.st6{fill:#424242;}
	.st7{fill:#E57565;}
	.st8{fill:url(#SVGID_1_);}
	.st9{fill:url(#SVGID_2_);}
	.st10{fill:url(#SVGID_3_);}
	.st11{fill:url(#SVGID_4_);}
	.st12{fill:url(#SVGID_5_);}
	.st13{fill:url(#SVGID_6_);}
	.st14{fill:url(#SVGID_7_);}
	.st15{fill:url(#SVGID_8_);}
	.st16{fill:#D3D3D3;}
</style>
<path class="st0" d="M23.7,38.2L4.8,40c-1.1,0.1-2.1-0.7-2.2-1.8L0,10.3c-0.1-1.1,0.7-2.1,1.8-2.2l6.5-2.6l14.4-1.3
	c1.1-0.1,2.1,0.7,2.2,1.8l2.2,25L25.5,36C25.6,37.1,24.8,38.1,23.7,38.2z"/>
<path class="st1" d="M28.7,33.9L7.8,35.7c-1.1,0.1-2.1-0.7-2.2-1.8L3,4C2.9,2.9,3.7,1.9,4.8,1.8L25.7,0c1.1-0.1,2.1,0.7,2.2,1.8
	l2.6,29.9C30.6,32.8,29.8,33.8,28.7,33.9z"/>
<path class="st2" d="M26.5,32L9.6,33.5c-1.1,0.1-2.1-0.7-2.2-1.8L5.2,5.8C5.1,4.7,5.9,3.7,7,3.6l16.9-1.5C25,2,26,2.9,26.1,4
	l2.3,25.9C28.5,31,27.6,31.9,26.5,32z"/>
<path class="st3" d="M22.7,30.9l-12,1c-1.1,0.1-2.1-0.7-2.2-1.8L6.8,9.2C6.7,8.1,7.5,7.2,8.6,7.1l12-1c1.1-0.1,2.1,0.7,2.2,1.8
	l1.8,20.9C24.6,29.9,23.8,30.8,22.7,30.9z"/>
<path class="st4" d="M24.7,8.1"/>
<path class="st4" d="M25.5,7.9"/>
<path class="st5" d="M4.2,20c-0.5,0-0.9-0.4-1-0.9L1.6,8.4c0-0.3,0-0.5,0.2-0.8C2,7.4,2.2,7.3,2.5,7.2l0.8-0.1
	c0.3,0,0.5,0.1,0.8,0.2c0.2,0.2,0.3,0.4,0.4,0.7l0.8,10.9c0,0.5-0.4,1-0.9,1.1C4.2,20,4.2,20,4.2,20z"/>
<path class="st5" d="M29.3,17.5c-0.5,0-1-0.4-1-0.9L27.5,5.8c0-0.5,0.3-1,0.8-1.1l1-0.2c0.3,0,0.6,0,0.8,0.2
	c0.2,0.2,0.4,0.5,0.3,0.8l-0.2,11C30.3,17,29.9,17.5,29.3,17.5C29.4,17.5,29.3,17.5,29.3,17.5z"/>
<path class="st5" d="M3.5,10.2c-1,0-1.9-0.8-2-1.8C1.4,7.3,2.2,6.3,3.3,6.2l25-2.7c1.1-0.1,2.1,0.7,2.2,1.8c0.1,1.1-0.7,2.1-1.8,2.2
	l-25,2.7C3.7,10.2,3.6,10.2,3.5,10.2z"/>
<path class="st6" d="M28.3,3.3L12,5.1l-8.9,1c-0.9,0.2-1.6,1-1.6,2c0,0.1,0.1,0.2,0.2,0.2l15.4-1.2l13.1-2c0.1,0,0.2-0.1,0.2-0.2
	C30.2,3.9,29.3,3.2,28.3,3.3z"/>
<path class="st7" d="M26.7,27.6C26.6,27.6,26.6,27.6,26.7,27.6l-0.9-0.1c-0.3,0-0.5-0.3-0.5-0.5s0.3-0.5,0.5-0.5l0.8,0.1
	c0.3,0,0.5,0.3,0.5,0.5C27.1,27.4,26.9,27.6,26.7,27.6z"/>
<path class="st7" d="M25.2,21c-0.3,0-0.5-0.2-0.5-0.5c0-0.3,0.2-0.5,0.5-0.5L26,20c0.3,0,0.5,0.2,0.5,0.5c0,0.3-0.2,0.5-0.5,0.5
	L25.2,21C25.3,21,25.2,21,25.2,21z"/>
<path class="st7" d="M24.7,14c-0.2,0-0.4-0.2-0.5-0.4c0-0.3,0.1-0.5,0.4-0.6l0.8-0.1c0.3-0.1,0.5,0.1,0.6,0.4s-0.1,0.5-0.4,0.6
	L24.7,14C24.8,14,24.7,14,24.7,14z"/>
<path class="st4" d="M24.2,7.4"/>
<path class="st4" d="M25.1,7.2"/>
<g>
	<linearGradient id="SVGID_1_" gradientUnits="userSpaceOnUse" x1="16.495" y1="11.1828" x2="21.495" y2="11.1828">
		<stop  offset="0" style="stop-color:#911707"/>
		<stop  offset="0.1683" style="stop-color:#9C1A08"/>
		<stop  offset="0.4683" style="stop-color:#BB220C"/>
		<stop  offset="0.8625" style="stop-color:#EC3013"/>
		<stop  offset="1" style="stop-color:#FF3515"/>
	</linearGradient>
	<line class="st8" x1="21.5" y1="9.3" x2="16.5" y2="13.1"/>
	<linearGradient id="SVGID_2_" gradientUnits="userSpaceOnUse" x1="15.9949" y1="11.1828" x2="21.9947" y2="11.1828">
		<stop  offset="0" style="stop-color:#940000"/>
		<stop  offset="1" style="stop-color:#BF3000"/>
	</linearGradient>
	<path class="st9" d="M16.5,13.6c-0.1,0-0.3-0.1-0.4-0.2c-0.2-0.2-0.1-0.5,0.1-0.7l5-3.8c0.2-0.2,0.5-0.1,0.7,0.1
		c0.2,0.2,0.1,0.5-0.1,0.7l-5,3.8C16.7,13.6,16.6,13.6,16.5,13.6z"/>
</g>
<g>
	<linearGradient id="SVGID_3_" gradientUnits="userSpaceOnUse" x1="16.495" y1="18.1828" x2="21.495" y2="18.1828">
		<stop  offset="0" style="stop-color:#911707"/>
		<stop  offset="0.1683" style="stop-color:#9C1A08"/>
		<stop  offset="0.4683" style="stop-color:#BB220C"/>
		<stop  offset="0.8625" style="stop-color:#EC3013"/>
		<stop  offset="1" style="stop-color:#FF3515"/>
	</linearGradient>
	<line class="st10" x1="21.5" y1="16.3" x2="16.5" y2="20.1"/>
	<linearGradient id="SVGID_4_" gradientUnits="userSpaceOnUse" x1="15.9949" y1="18.1828" x2="21.9947" y2="18.1828">
		<stop  offset="0" style="stop-color:#940000"/>
		<stop  offset="1" style="stop-color:#BF3000"/>
	</linearGradient>
	<path class="st11" d="M16.5,20.6c-0.1,0-0.3-0.1-0.4-0.2c-0.2-0.2-0.1-0.5,0.1-0.7l5-3.8c0.2-0.2,0.5-0.1,0.7,0.1
		c0.2,0.2,0.1,0.5-0.1,0.7l-5,3.8C16.7,20.6,16.6,20.6,16.5,20.6z"/>
</g>
<g>
	<linearGradient id="SVGID_5_" gradientUnits="userSpaceOnUse" x1="16.495" y1="25.1828" x2="21.495" y2="25.1828">
		<stop  offset="0" style="stop-color:#911707"/>
		<stop  offset="9.149308e-02" style="stop-color:#8C2212"/>
		<stop  offset="0.2547" style="stop-color:#7F4031"/>
		<stop  offset="0.4707" style="stop-color:#697063"/>
		<stop  offset="0.7314" style="stop-color:#4CB3A8"/>
		<stop  offset="1" style="stop-color:#2AFFF6"/>
	</linearGradient>
	<line class="st12" x1="21.5" y1="23.3" x2="16.5" y2="27.1"/>
	<linearGradient id="SVGID_6_" gradientUnits="userSpaceOnUse" x1="15.9949" y1="25.1825" x2="21.9947" y2="25.1825">
		<stop  offset="0" style="stop-color:#940000"/>
		<stop  offset="1" style="stop-color:#BF3000"/>
	</linearGradient>
	<path class="st13" d="M16.5,27.6c-0.1,0-0.3-0.1-0.4-0.2c-0.2-0.2-0.1-0.5,0.1-0.7l5-3.8c0.2-0.2,0.5-0.1,0.7,0.1
		c0.2,0.2,0.1,0.5-0.1,0.7l-5,3.8C16.7,27.6,16.6,27.6,16.5,27.6z"/>
</g>
<g>
	<linearGradient id="SVGID_7_" gradientUnits="userSpaceOnUse" x1="19.7882" y1="29.9204" x2="21.495" y2="29.9204">
		<stop  offset="0" style="stop-color:#911707"/>
		<stop  offset="0.2486" style="stop-color:#9C2112"/>
		<stop  offset="0.6899" style="stop-color:#BB3C2E"/>
		<stop  offset="1" style="stop-color:#D45346"/>
	</linearGradient>
	<line class="st14" x1="21.5" y1="29.3" x2="19.8" y2="30.6"/>
	<linearGradient id="SVGID_8_" gradientUnits="userSpaceOnUse" x1="19.288" y1="29.92" x2="21.9946" y2="29.92">
		<stop  offset="0" style="stop-color:#940000"/>
		<stop  offset="1" style="stop-color:#BF3000"/>
	</linearGradient>
	<path class="st15" d="M19.8,31.1c-0.2,0-0.3-0.1-0.4-0.2c-0.2-0.2-0.1-0.5,0.1-0.7l1.7-1.3c0.2-0.2,0.5-0.1,0.7,0.1
		c0.2,0.2,0.1,0.5-0.1,0.7L20.1,31C20,31,19.9,31.1,19.8,31.1z"/>
</g>
<rect x="9.8" y="27.6" transform="matrix(0.8478 0.5303 -0.5303 0.8478 17.0784 -2.0304)" class="st16" width="4.5" height="2.4"/>
</svg>
