<?xml version="1.0" encoding="utf-8"?>
<!-- Generator: Adobe Illustrator 16.0.4, SVG Export Plug-In . SVG Version: 6.00 Build 0)  -->
<!DOCTYPE svg PUBLIC "-//W3C//DTD SVG 1.1//EN" "http://www.w3.org/Graphics/SVG/1.1/DTD/svg11.dtd">
<svg version="1.1" id="Layer_1" xmlns="http://www.w3.org/2000/svg" xmlns:xlink="http://www.w3.org/1999/xlink" x="0px" y="0px"
	 width="32.594px" height="35.357px" viewBox="0 0 32.594 35.357" enable-background="new 0 0 32.594 35.357" xml:space="preserve">
<g>
	<defs>
		<rect id="SVGID_1_" x="-6.211" y="-2.771" width="40" height="40"/>
	</defs>
	<clipPath id="SVGID_2_">
		<use xlink:href="#SVGID_1_"  overflow="visible"/>
	</clipPath>
	<g clip-path="url(#SVGID_2_)">
		<defs>
			<rect id="SVGID_3_" x="-6.211" y="-2.771" width="40" height="40"/>
		</defs>
		<clipPath id="SVGID_4_">
			<use xlink:href="#SVGID_3_"  overflow="visible"/>
		</clipPath>
		<path clip-path="url(#SVGID_4_)" fill="#CCCCCC" d="M21.408,33.664L3.897,35.349c-1.096,0.096-1.849-0.741-1.946-1.837L0,15.465
			c-0.001-4,4.549-11.257,5.645-11.353l3.732-0.363l12.905,0.877c1.096-0.097,2.071,0.721,2.167,1.817l1.843,21.003l5.373,1.537
			C31.762,30.081,24.901,33.413,21.408,33.664"/>
		<path clip-path="url(#SVGID_4_)" fill="#5D5D5D" d="M27.991,31.226L7.071,33.061C5.976,33.158,5,32.34,4.904,31.244L2.72,8.341
			C2.624,7.246,4.138,4.352,5.778,2.654l19.591-1.313c1.097-0.096,2.071,0.722,2.167,1.817l4.025,25.69
			C31.657,29.944,29.087,31.13,27.991,31.226"/>
		<path clip-path="url(#SVGID_4_)" fill="#E8E8E8" d="M30.769,30.04l-20.92,1.835c-1.095,0.098-2.071-0.721-2.167-1.816
			L6.546,17.109L6,10.985L5.388,4.01C5.292,2.914,6.11,1.939,7.206,1.843l20.92-1.835c1.096-0.097,2.071,0.721,2.167,1.817
			L30.905,8.8l0.546,6.123l1.136,12.95C32.683,28.969,31.865,29.944,30.769,30.04"/>
		<path clip-path="url(#SVGID_4_)" fill="#1B1919" d="M11.643,27.642c-0.513,0-0.949-0.393-0.995-0.912
			c-0.048-0.551,0.358-1.036,0.909-1.084l16.847-1.482c0.549-0.053,1.035,0.359,1.084,0.909c0.048,0.55-0.358,1.035-0.909,1.083
			C28.578,26.156,11.671,27.642,11.643,27.642"/>
		
			<rect x="9.324" y="4.527" transform="matrix(0.9962 -0.0872 0.0872 0.9962 -1.0459 1.123)" clip-path="url(#SVGID_4_)" fill="#2A1F30" width="5.999" height="15.999"/>
		<path clip-path="url(#SVGID_4_)" fill="#605570" d="M28.961,19.096l-18.927,1.661c2.619-5.144,2.077-11.331-1.399-15.938
			l18.928-1.661C31.039,7.767,31.582,13.954,28.961,19.096z"/>
		<path clip-path="url(#SVGID_4_)" fill="#938B9E" d="M13.245,16.46l11.54-1.012c-1.786-2.223-2.07-5.47-0.7-7.97L12.546,8.491
			C11.175,10.99,11.46,14.237,13.245,16.46z"/>
		<path clip-path="url(#SVGID_4_)" fill="#7D728C" d="M26.5,15.297l-12.95,1.136c1.564-2.516,1.279-5.763-0.699-7.969l12.95-1.136
			C27.779,9.534,28.064,12.78,26.5,15.297z"/>
		<g opacity="0.25" clip-path="url(#SVGID_4_)">
			<g>
				<defs>
					<rect id="SVGID_5_" x="11.468" y="16.247" width="14.418" height="9.404"/>
				</defs>
				<clipPath id="SVGID_6_">
					<use xlink:href="#SVGID_5_"  overflow="visible"/>
				</clipPath>
				<polygon clip-path="url(#SVGID_6_)" points="24.418,24.514 11.468,25.651 12.848,18.501 14.019,20.407 15.662,16.247 
					17.829,18.065 19.734,16.894 21.988,19.708 23.719,16.543 25.886,18.362 				"/>
			</g>
		</g>
		<polygon clip-path="url(#SVGID_4_)" fill="#FFFFFF" points="26.498,25.334 13.547,26.471 14.84,18.327 16.011,20.232 
			17.655,16.072 19.822,17.89 21.725,16.719 23.981,19.533 25.71,16.369 27.878,18.187 		"/>
	</g>
</g>
</svg>
