<?xml version="1.0" encoding="utf-8"?>
<!-- Generator: Adobe Illustrator 19.2.0, SVG Export Plug-In . SVG Version: 6.00 Build 0)  -->
<svg version="1.1" id="Слой_1" xmlns="http://www.w3.org/2000/svg" xmlns:xlink="http://www.w3.org/1999/xlink" x="0px" y="0px"
	 viewBox="0 0 32.6 35.4" style="enable-background:new 0 0 32.6 35.4;" xml:space="preserve">
<style type="text/css">
	.st0{fill:#CCCCCC;}
	.st1{fill:#5D5D5D;}
	.st2{fill:#E8E8E8;}
	.st3{fill:#1B1919;}
	.st4{fill:none;stroke:#E57565;stroke-linecap:round;stroke-miterlimit:10;}
	.st5{fill:#2A1F30;}
	.st6{fill:#605570;}
	.st7{fill:#938B9E;}
	.st8{fill:#7D728C;}
	.st9{opacity:0.25;}
	.st10{fill:#FFFFFF;}
</style>
<path class="st0" d="M21.4,33.7L3.9,35.3C2.8,35.4,2,34.6,2,33.5l-2-18c0-4,4.5-11.3,5.6-11.4l3.7-0.4l12.9,0.9
	c1.1-0.1,2.1,0.7,2.2,1.8l1.8,21l5.4,1.5C31.8,30.1,24.9,33.4,21.4,33.7z"/>
<path class="st1" d="M28,31.2L7.1,33.1C6,33.2,5,32.3,4.9,31.2L2.7,8.3c-0.1-1.1,1.4-4,3.1-5.7l19.6-1.3c1.1-0.1,2.1,0.7,2.2,1.8
	l4,25.7C31.7,29.9,29.1,31.1,28,31.2z"/>
<path class="st2" d="M30.8,30L9.8,31.9c-1.1,0.1-2.1-0.7-2.2-1.8L6.5,17.1L6,11L5.4,4C5.3,2.9,6.1,1.9,7.2,1.8L28.1,0
	c1.1-0.1,2.1,0.7,2.2,1.8l0.6,7l0.5,6.1l1.1,12.9C32.7,29,31.9,29.9,30.8,30z"/>
<g>
	<path class="st3" d="M11.6,27.6c-0.5,0-0.9-0.4-1-0.9c0-0.6,0.4-1,0.9-1.1l16.8-1.5c0.5-0.1,1,0.4,1.1,0.9c0,0.6-0.4,1-0.9,1.1
		C28.6,26.2,11.7,27.6,11.6,27.6z"/>
</g>
<path class="st4" d="M26.4,8.2"/>
<path class="st4" d="M27.2,8.1"/>
<path class="st4" d="M25.9,7.6"/>
<path class="st4" d="M26.8,7.3"/>
<rect x="9.3" y="4.5" transform="matrix(0.9962 -8.740035e-02 8.740035e-02 0.9962 -1.0476 1.125)" class="st5" width="6" height="16"/>
<path class="st6" d="M29,19.1L10,20.8l0,0c2.6-5.1,2.1-11.3-1.4-15.9l0,0l18.9-1.7l0,0C31,7.8,31.6,14,29,19.1L29,19.1z"/>
<path class="st7" d="M13.2,16.5l11.5-1l0,0c-1.8-2.2-2.1-5.5-0.7-8l0,0l-11.5,1l0,0C11.2,11,11.5,14.2,13.2,16.5L13.2,16.5z"/>
<path class="st8" d="M26.5,15.3l-13,1.1l0,0c1.6-2.5,1.3-5.8-0.7-8l0,0l13-1.1l0,0C27.8,9.5,28.1,12.8,26.5,15.3L26.5,15.3z"/>
<polygon class="st9" points="24.4,24.5 11.5,25.7 12.8,18.5 14,20.4 15.7,16.2 17.8,18.1 19.7,16.9 22,19.7 23.7,16.5 25.9,18.4 "/>
<polygon class="st10" points="26.5,25.3 13.5,26.5 14.8,18.3 16,20.2 17.7,16.1 19.8,17.9 21.7,16.7 24,19.5 25.7,16.4 27.9,18.2 
	"/>
</svg>
