<?xml version="1.0" encoding="utf-8"?>
<!-- Generator: Adobe Illustrator 19.2.0, SVG Export Plug-In . SVG Version: 6.00 Build 0)  -->
<svg version="1.1" id="Слой_1" xmlns="http://www.w3.org/2000/svg" xmlns:xlink="http://www.w3.org/1999/xlink" x="0px" y="0px"
	 viewBox="0 0 33.7 32.5" style="enable-background:new 0 0 33.7 32.5;" xml:space="preserve">
<style type="text/css">
	.st0{fill:#547682;}
</style>
<g>
	<path class="st0" d="M33,16.2c-0.6-0.7-1.4-1.1-2.5-1.2c-2.4-0.1-3.7,0.7-4.5,1.6v-3.1c0-0.3-0.2-0.5-0.5-0.5h-24
		C1.2,13,1,13.2,1,13.5v4c0,0.1,0.2,11.5,8.9,14H0.5C0.2,31.5,0,31.7,0,32c0,0.3,0.2,0.5,0.5,0.5h26c0.3,0,0.5-0.2,0.5-0.5
		c0-0.3-0.2-0.5-0.5-0.5h-9.3c1.7-0.5,3.2-1.4,4.4-2.6c0.6-0.6,1.1-1.2,1.6-1.9c4-0.1,7.2-1.9,8.5-3c0.8-0.7,1.4-1.7,1.7-2.8
		C33.8,19.6,34,17.5,33,16.2z M20.9,28.2C19,30.1,16.6,31,13.5,31C2.2,30.9,2,18,2,17.5V14h23v3.5C25,17.6,24.9,24.3,20.9,28.2z
		 M32.4,21c-0.2,0.9-0.7,1.7-1.4,2.3c-1.1,0.9-3.8,2.5-7.2,2.7c1.5-2.7,1.9-5.6,2.1-7.2c0.1-0.4,0.7-2.9,4.6-2.7
		c0.8,0,1.4,0.3,1.7,0.8C33,17.8,32.7,19.9,32.4,21z"/>
	<path class="st0" d="M8.1,9.3c0,1.4,1,2.5,1.1,2.5C9.2,12,9.4,12,9.5,12c0.1,0,0.3,0,0.4-0.1c0.2-0.2,0.2-0.5,0-0.7
		c0,0-0.8-0.8-0.8-1.8c0-0.5,0.3-1,0.8-1.5c0.7-0.6,1.1-1.4,1.1-2.2c0-1.4-1-2.5-1.1-2.5C9.7,2.9,9.3,3,9.1,3.1C9,3.3,9,3.7,9.1,3.9
		c0,0,0.8,0.8,0.8,1.8c0,0.5-0.3,1-0.8,1.5C8.4,7.8,8.1,8.5,8.1,9.3z"/>
	<path class="st0" d="M13.1,6.3c0,1.4,1,2.5,1.1,2.5C14.2,9,14.4,9,14.5,9c0.1,0,0.3,0,0.4-0.1c0.2-0.2,0.2-0.5,0-0.7
		c0,0-0.8-0.8-0.8-1.8c0-0.5,0.3-1,0.8-1.5c0.7-0.6,1.1-1.4,1.1-2.2c0-1.4-1-2.5-1.1-2.5c-0.2-0.2-0.5-0.2-0.7,0
		c-0.2,0.2-0.2,0.5,0,0.7c0,0,0.8,0.8,0.8,1.8c0,0.5-0.3,1-0.8,1.5C13.4,4.8,13.1,5.5,13.1,6.3z"/>
	<path class="st0" d="M17.1,11.8c0.1,0.1,0.2,0.2,0.4,0.2c0.1,0,0.2,0,0.3-0.1c0.7-0.6,1.1-1.4,1.1-2.2c0-1.4-1-2.5-1.1-2.5
		c-0.2-0.2-0.5-0.2-0.7,0c-0.2,0.2-0.2,0.5,0,0.7c0,0,0.8,0.8,0.8,1.8c0,0.5-0.3,1-0.8,1.5C17,11.3,16.9,11.6,17.1,11.8z"/>
</g>
</svg>
