<?xml version="1.0" encoding="utf-8"?>
<!-- Generator: Adobe Illustrator 19.2.0, SVG Export Plug-In . SVG Version: 6.00 Build 0)  -->
<svg version="1.1" id="Слой_1" xmlns="http://www.w3.org/2000/svg" xmlns:xlink="http://www.w3.org/1999/xlink" x="0px" y="0px"
	 viewBox="0 0 35 35" style="enable-background:new 0 0 35 35;" xml:space="preserve">
<style type="text/css">
	.st0{fill:#547682;}
</style>
<g>
	<path class="st0" d="M34.9,7.2C34.6,6.9,28.7,0,17.5,0C6.3,0,0.4,6.9,0.1,7.2C0,7.3,0,7.6,0.1,7.8l17,27c0.1,0.1,0.3,0.2,0.4,0.2
		s0.3-0.1,0.4-0.2l17-27C35,7.6,35,7.3,34.9,7.2z M17.5,33.6L3.3,11c1.2-1.2,2.9-2.6,5.1-3.7C8.1,7.8,8,8.4,8,9c0,2.2,1.8,4,4,4
		s4-1.8,4-4c0-1.6-1-3-2.3-3.6C14.9,5.1,16.1,5,17.5,5c6.8,0,11.7,3.6,14.2,6L30,13.7c0,0-0.1-0.1-0.1-0.2C28.8,12,27,11,25,11
		c-3.3,0-6,2.7-6,6c0,3,2.3,5.5,5.2,5.9L17.5,33.6z M12,6c1.7,0,3,1.3,3,3s-1.3,3-3,3s-3-1.3-3-3S10.3,6,12,6z M24.8,22
		c-2.7-0.1-4.8-2.3-4.8-5c0-2.8,2.2-5,5-5c1.6,0,3.2,0.8,4.1,2.1c0.1,0.2,0.2,0.3,0.3,0.5L24.8,22z M32.2,10.2
		C29.6,7.6,24.5,4,17.5,4c-7,0-12.1,3.6-14.7,6.2L1.1,7.6C2.3,6.3,8,1,17.5,1C27,1,32.7,6.3,33.9,7.6L32.2,10.2z"/>
	<path class="st0" d="M16.5,24c-1.4,0-2.5,1.1-2.5,2.5s1.1,2.5,2.5,2.5s2.5-1.1,2.5-2.5S17.9,24,16.5,24z M16.5,28
		c-0.8,0-1.5-0.7-1.5-1.5s0.7-1.5,1.5-1.5s1.5,0.7,1.5,1.5S17.3,28,16.5,28z"/>
</g>
</svg>
