<?xml version="1.0" encoding="utf-8"?>
<!-- Generator: Adobe Illustrator 19.2.0, SVG Export Plug-In . SVG Version: 6.00 Build 0)  -->
<svg version="1.1" id="Слой_1" xmlns="http://www.w3.org/2000/svg" xmlns:xlink="http://www.w3.org/1999/xlink" x="0px" y="0px"
	 viewBox="0 0 36 33" style="enable-background:new 0 0 36 33;" xml:space="preserve">
<style type="text/css">
	.st0{fill:#547682;}
</style>
<path class="st0" d="M25,0c-2.4,1.7-4.8,2.2-6.9,2.2C14,2.2,11,0,11,0L0,8l4,6l4-2v14v1v6h20v-6v-1V12l4,2l4-6C36,8,27.7,2.2,25,0z
	 M27,32H9v-5h18V32z M31.7,12.7l-3.2-1.6C28.3,11,28.2,11,28,11c-0.2,0-0.4,0.1-0.5,0.1C27.2,11.3,27,11.7,27,12v14H9V12
	c0-0.3-0.2-0.7-0.5-0.9C8.4,11.1,8.2,11,8,11c-0.2,0-0.3,0-0.4,0.1l-3.2,1.6l-3-4.5l9.7-7c1.1,0.7,3.8,2,7.1,2c2.4,0,4.7-0.7,6.8-2
	c2.5,2,7.7,5.6,9.7,7L31.7,12.7z"/>
</svg>
