<?xml version="1.0" encoding="utf-8"?>
<!-- Generator: Adobe Illustrator 16.0.4, SVG Export Plug-In . SVG Version: 6.00 Build 0)  -->
<!DOCTYPE svg PUBLIC "-//W3C//DTD SVG 1.1//EN" "http://www.w3.org/Graphics/SVG/1.1/DTD/svg11.dtd">
<svg version="1.1" id="Layer_1" xmlns="http://www.w3.org/2000/svg" xmlns:xlink="http://www.w3.org/1999/xlink" x="0px" y="0px"
	 width="32.237px" height="39.877px" viewBox="0 0 32.237 39.877" enable-background="new 0 0 32.237 39.877" xml:space="preserve">
<g>
	<defs>
		<rect id="SVGID_1_" x="-6.061" y="0" width="40" height="40"/>
	</defs>
	<clipPath id="SVGID_2_">
		<use xlink:href="#SVGID_1_"  overflow="visible"/>
	</clipPath>
	<path clip-path="url(#SVGID_2_)" fill="#CCCCCC" d="M21.752,38.188L4.241,39.87c-1.096,0.097-1.85-0.741-1.946-1.837L0,16.001
		C0,12,4.552,4.744,5.647,4.648L9.38,4.286l12.905,0.88c1.095-0.096,2.069,0.722,2.166,1.818l2.187,24.99l5.373,1.537
		C32.105,34.607,25.245,37.938,21.752,38.188"/>
	<path clip-path="url(#SVGID_2_)" fill="#5D5D5D" d="M28.336,35.752l-20.92,1.83c-1.096,0.096-2.071-0.723-2.167-1.818L2.722,8.876
		C2.626,7.781,5.779,3.354,6.94,3l18.433-1.119c1.095-0.095,2.069,0.723,2.166,1.818l4.366,29.676
		C32.002,34.471,29.432,35.657,28.336,35.752"/>
	<path clip-path="url(#SVGID_2_)" fill="#E8E8E8" d="M30.411,34.567l-20.92,1.83c-1.096,0.096-2.071-0.723-2.167-1.818L5.843,17.645
		l1.158-6.124l-0.61-6.975C6.295,3.45,7.113,2.475,8.209,2.379l20.92-1.83c1.096-0.096,2.071,0.722,2.167,1.818l0.61,6.975
		l-1.158,6.124L32.229,32.4C32.325,33.496,31.507,34.471,30.411,34.567"/>
	<polygon clip-path="url(#SVGID_2_)" fill="#C6C6C6" points="30.748,15.465 5.843,17.645 7.001,11.521 31.906,9.341 	"/>
	<polygon clip-path="url(#SVGID_2_)" fill="#1C9FAC" points="28.956,13.991 8.317,15.798 8.792,12.996 29.464,11.186 	"/>
	<line clip-path="url(#SVGID_2_)" fill="#FFFFFF" x1="18.334" y1="7.141" x2="29.494" y2="6.164"/>
	<path clip-path="url(#SVGID_2_)" fill="#1B1919" d="M18.334,8.141c-0.513,0-0.949-0.392-0.995-0.913
		c-0.048-0.55,0.358-1.035,0.909-1.083l11.16-0.977c0.549-0.053,1.035,0.359,1.083,0.909c0.048,0.55-0.358,1.035-0.909,1.083
		l-11.16,0.977C18.393,8.14,18.363,8.141,18.334,8.141"/>
	<polygon clip-path="url(#SVGID_2_)" fill="#9E9E9E" points="27.944,5.296 18.23,6.146 17.74,0.543 18.108,1.514 18.77,0.453 
		20.163,1.334 21.509,0.213 22.451,1.134 23.937,0 25.171,0.896 26.089,0.034 26.95,0.74 27.302,0.034 	"/>
	<polygon clip-path="url(#SVGID_2_)" fill="#FFFFFF" points="29.028,6.205 18.848,7.096 18.358,1.493 19.192,2.423 19.853,1.362 
		21.247,2.243 22.592,1.122 23.535,2.043 25.02,0.909 26.254,1.805 27.172,1.049 28.034,1.649 28.385,0.943 	"/>
	<line clip-path="url(#SVGID_2_)" fill="#9E9E9E" x1="10.862" y1="21.221" x2="12.854" y2="21.047"/>
	<path clip-path="url(#SVGID_2_)" fill="#B5B5B5" d="M10.861,22.221c-0.513,0-0.95-0.393-0.995-0.913
		c-0.048-0.55,0.359-1.035,0.909-1.083l1.993-0.174c0.565-0.052,1.035,0.359,1.083,0.909c0.048,0.55-0.359,1.035-0.909,1.083
		l-1.993,0.174C10.919,22.22,10.89,22.221,10.861,22.221"/>
	<line clip-path="url(#SVGID_2_)" fill="#9E9E9E" x1="17.835" y1="20.611" x2="19.827" y2="20.437"/>
	<path clip-path="url(#SVGID_2_)" fill="#B5B5B5" d="M17.834,21.611c-0.513,0-0.949-0.393-0.995-0.913
		c-0.048-0.55,0.358-1.035,0.909-1.083l1.993-0.174c0.55-0.053,1.035,0.358,1.083,0.909c0.048,0.55-0.358,1.034-0.909,1.083
		l-1.993,0.174C17.893,21.61,17.863,21.611,17.834,21.611"/>
	<line clip-path="url(#SVGID_2_)" fill="#9E9E9E" x1="24.809" y1="20" x2="26.801" y2="19.827"/>
	<path clip-path="url(#SVGID_2_)" fill="#B5B5B5" d="M24.808,21c-0.513,0-0.949-0.392-0.995-0.913
		c-0.048-0.55,0.358-1.035,0.909-1.083l1.992-0.174c0.542-0.048,1.035,0.358,1.083,0.908c0.048,0.551-0.358,1.037-0.909,1.084
		l-1.992,0.174C24.866,21,24.837,21,24.808,21"/>
	<line clip-path="url(#SVGID_2_)" fill="#9E9E9E" x1="11.298" y1="26.203" x2="13.29" y2="26.029"/>
	<path clip-path="url(#SVGID_2_)" fill="#B5B5B5" d="M11.297,27.203c-0.513,0-0.95-0.393-0.995-0.913
		c-0.048-0.55,0.358-1.035,0.909-1.083l1.992-0.175c0.55-0.056,1.036,0.358,1.084,0.909c0.048,0.55-0.359,1.035-0.909,1.083
		l-1.993,0.175C11.356,27.202,11.326,27.203,11.297,27.203"/>
	<line clip-path="url(#SVGID_2_)" fill="#9E9E9E" x1="18.271" y1="25.592" x2="20.264" y2="25.418"/>
	<path clip-path="url(#SVGID_2_)" fill="#B5B5B5" d="M18.271,26.592c-0.513,0-0.949-0.393-0.995-0.912
		c-0.049-0.551,0.358-1.036,0.908-1.084l1.992-0.175c0.567-0.048,1.036,0.359,1.084,0.908c0.049,0.551-0.358,1.036-0.908,1.084
		l-1.992,0.175C18.329,26.591,18.3,26.592,18.271,26.592"/>
	<line clip-path="url(#SVGID_2_)" fill="#9E9E9E" x1="25.245" y1="24.982" x2="27.236" y2="24.807"/>
	<path clip-path="url(#SVGID_2_)" fill="#B5B5B5" d="M25.244,25.982c-0.513,0-0.949-0.393-0.995-0.912
		c-0.049-0.551,0.358-1.036,0.908-1.084l1.992-0.175c0.567-0.052,1.036,0.358,1.084,0.908c0.049,0.551-0.358,1.036-0.908,1.084
		l-1.992,0.175C25.303,25.981,25.273,25.982,25.244,25.982"/>
	<line clip-path="url(#SVGID_2_)" fill="#9E9E9E" x1="11.734" y1="31.183" x2="13.726" y2="31.009"/>
	<path clip-path="url(#SVGID_2_)" fill="#919191" d="M11.733,32.183c-0.513,0-0.95-0.393-0.995-0.913
		c-0.048-0.55,0.359-1.035,0.909-1.083l1.993-0.174c0.565-0.056,1.035,0.359,1.083,0.909s-0.358,1.035-0.909,1.083l-1.993,0.174
		C11.791,32.182,11.762,32.183,11.733,32.183"/>
	<line clip-path="url(#SVGID_2_)" fill="#9E9E9E" x1="18.707" y1="30.573" x2="20.699" y2="30.399"/>
	<path clip-path="url(#SVGID_2_)" fill="#B5B5B5" d="M18.706,31.573c-0.513,0-0.95-0.393-0.995-0.913
		c-0.048-0.55,0.359-1.035,0.909-1.083l1.993-0.174c0.545-0.052,1.035,0.359,1.083,0.909s-0.359,1.035-0.909,1.083l-1.993,0.174
		C18.765,31.572,18.735,31.573,18.706,31.573"/>
	<line clip-path="url(#SVGID_2_)" fill="#9E9E9E" x1="25.681" y1="29.962" x2="27.673" y2="29.789"/>
	<path clip-path="url(#SVGID_2_)" fill="#DDA947" d="M25.68,30.962c-0.513,0-0.95-0.393-0.995-0.913
		c-0.048-0.55,0.359-1.035,0.909-1.083l1.992-0.174c0.546-0.047,1.036,0.359,1.083,0.909c0.048,0.55-0.359,1.035-0.909,1.083
		l-1.992,0.174C25.738,30.961,25.709,30.962,25.68,30.962"/>
</g>
</svg>
