<?xml version="1.0" encoding="utf-8"?>
<!-- Generator: Adobe Illustrator 19.2.0, SVG Export Plug-In . SVG Version: 6.00 Build 0)  -->
<svg version="1.1" id="Слой_1" xmlns="http://www.w3.org/2000/svg" xmlns:xlink="http://www.w3.org/1999/xlink" x="0px" y="0px"
	 viewBox="0 0 32.2 39.9" style="enable-background:new 0 0 32.2 39.9;" xml:space="preserve">
<style type="text/css">
	.st0{fill:#CCCCCC;}
	.st1{fill:#5D5D5D;}
	.st2{fill:#E8E8E8;}
	.st3{fill:none;stroke:#E57565;stroke-linecap:round;stroke-miterlimit:10;}
	.st4{fill:#C6C6C6;}
	.st5{fill:#1C9FAC;}
	.st6{fill:#FFFFFF;}
	.st7{fill:#1B1919;}
	.st8{fill:#9E9E9E;}
	.st9{fill:#B5B5B5;}
	.st10{fill:#919191;}
	.st11{fill:#DDA947;}
</style>
<path class="st0" d="M21.8,38.2L4.2,39.9C3.1,40,2.4,39.1,2.3,38L0,16C0,12,4.6,4.7,5.6,4.6l3.7-0.4l12.9,0.9
	c1.1-0.1,2.1,0.7,2.2,1.8l2.2,25l5.4,1.5C32.1,34.6,25.2,37.9,21.8,38.2z"/>
<path class="st1" d="M28.3,35.8L7.4,37.6c-1.1,0.1-2.1-0.7-2.2-1.8L2.7,8.9C2.6,7.8,5.8,3.4,6.9,3l18.4-1.1c1.1-0.1,2.1,0.7,2.2,1.8
	l4.4,29.7C32,34.5,29.4,35.7,28.3,35.8z"/>
<path class="st2" d="M30.4,34.6L9.5,36.4c-1.1,0.1-2.1-0.7-2.2-1.8L5.8,17.6L7,11.5l-0.6-7C6.3,3.4,7.1,2.5,8.2,2.4l20.9-1.8
	c1.1-0.1,2.1,0.7,2.2,1.8l0.6,7l-1.2,6.1l1.5,16.9C32.3,33.5,31.5,34.5,30.4,34.6z"/>
<path class="st3" d="M26.4,8.8"/>
<path class="st3" d="M27.2,8.6"/>
<path class="st3" d="M25.9,8.1"/>
<path class="st3" d="M26.8,7.9"/>
<polygon class="st4" points="30.7,15.5 5.8,17.6 7,11.5 31.9,9.3 "/>
<polygon class="st5" points="29,14 8.3,15.8 8.8,13 29.5,11.2 "/>
<g>
	<line class="st6" x1="18.3" y1="7.1" x2="29.5" y2="6.2"/>
	<path class="st7" d="M18.3,8.1c-0.5,0-0.9-0.4-1-0.9c0-0.6,0.4-1,0.9-1.1l11.2-1c0.5-0.1,1,0.4,1.1,0.9c0,0.6-0.4,1-0.9,1.1
		L18.3,8.1C18.4,8.1,18.4,8.1,18.3,8.1z"/>
</g>
<polygon class="st8" points="27.9,5.3 18.2,6.1 17.7,0.5 18.1,1.5 18.8,0.5 20.2,1.3 21.5,0.2 22.5,1.1 23.9,0 25.2,0.9 26.1,0 
	27,0.7 27.3,0 "/>
<polygon class="st6" points="29,6.2 18.8,7.1 18.4,1.5 19.2,2.4 19.9,1.4 21.2,2.2 22.6,1.1 23.5,2 25,0.9 26.3,1.8 27.2,1 28,1.6 
	28.4,0.9 "/>
<g>
	<line class="st8" x1="10.9" y1="21.2" x2="12.9" y2="21"/>
	<path class="st9" d="M10.9,22.2c-0.5,0-0.9-0.4-1-0.9c0-0.6,0.4-1,0.9-1.1l2-0.2c0.6-0.1,1,0.4,1.1,0.9c0,0.5-0.4,1-0.9,1.1
		L10.9,22.2C10.9,22.2,10.9,22.2,10.9,22.2z"/>
</g>
<g>
	<line class="st8" x1="17.8" y1="20.6" x2="19.8" y2="20.4"/>
	<path class="st9" d="M17.8,21.6c-0.5,0-0.9-0.4-1-0.9c0-0.5,0.4-1,0.9-1.1l2-0.2c0.5-0.1,1,0.4,1.1,0.9c0,0.5-0.4,1-0.9,1.1
		L17.8,21.6C17.9,21.6,17.9,21.6,17.8,21.6z"/>
</g>
<g>
	<line class="st8" x1="24.8" y1="20" x2="26.8" y2="19.8"/>
	<path class="st9" d="M24.8,21c-0.5,0-0.9-0.4-1-0.9c0-0.6,0.4-1,0.9-1.1l2-0.2c0.5,0,1,0.4,1.1,0.9s-0.4,1-0.9,1.1L24.8,21
		C24.9,21,24.8,21,24.8,21z"/>
</g>
<g>
	<line class="st8" x1="11.3" y1="26.2" x2="13.3" y2="26"/>
	<path class="st9" d="M11.3,27.2c-0.5,0-0.9-0.4-1-0.9c0-0.5,0.4-1,0.9-1.1l2-0.2c0.5-0.1,1,0.4,1.1,0.9c0,0.5-0.4,1-0.9,1.1
		L11.3,27.2C11.4,27.2,11.3,27.2,11.3,27.2z"/>
</g>
<g>
	<line class="st8" x1="18.3" y1="25.6" x2="20.3" y2="25.4"/>
	<path class="st9" d="M18.3,26.6c-0.5,0-0.9-0.4-1-0.9c0-0.6,0.4-1,0.9-1.1l2-0.2c0.6,0,1,0.4,1.1,0.9c0,0.6-0.4,1-0.9,1.1
		L18.3,26.6C18.3,26.6,18.3,26.6,18.3,26.6z"/>
</g>
<g>
	<line class="st8" x1="25.2" y1="25" x2="27.2" y2="24.8"/>
	<path class="st9" d="M25.2,26c-0.5,0-0.9-0.4-1-0.9c0-0.6,0.4-1,0.9-1.1l2-0.2c0.6-0.1,1,0.4,1.1,0.9c0,0.6-0.4,1-0.9,1.1L25.2,26
		C25.3,26,25.3,26,25.2,26z"/>
</g>
<g>
	<line class="st8" x1="11.7" y1="31.2" x2="13.7" y2="31"/>
	<path class="st10" d="M11.7,32.2c-0.5,0-0.9-0.4-1-0.9c0-0.5,0.4-1,0.9-1.1l2-0.2c0.6-0.1,1,0.4,1.1,0.9c0,0.5-0.4,1-0.9,1.1
		L11.7,32.2C11.8,32.2,11.8,32.2,11.7,32.2z"/>
</g>
<g>
	<line class="st8" x1="18.7" y1="30.6" x2="20.7" y2="30.4"/>
	<path class="st9" d="M18.7,31.6c-0.5,0-1-0.4-1-0.9c0-0.5,0.4-1,0.9-1.1l2-0.2c0.5-0.1,1,0.4,1.1,0.9s-0.4,1-0.9,1.1L18.7,31.6
		C18.8,31.6,18.7,31.6,18.7,31.6z"/>
</g>
<g>
	<line class="st8" x1="25.7" y1="30" x2="27.7" y2="29.8"/>
	<path class="st11" d="M25.7,31c-0.5,0-1-0.4-1-0.9c0-0.5,0.4-1,0.9-1.1l2-0.2c0.5,0,1,0.4,1.1,0.9c0,0.5-0.4,1-0.9,1.1L25.7,31
		C25.7,31,25.7,31,25.7,31z"/>
</g>
</svg>
