<?xml version="1.0" encoding="utf-8"?>
<!-- Generator: Adobe Illustrator 16.0.4, SVG Export Plug-In . SVG Version: 6.00 Build 0)  -->
<!DOCTYPE svg PUBLIC "-//W3C//DTD SVG 1.1//EN" "http://www.w3.org/Graphics/SVG/1.1/DTD/svg11.dtd">
<svg version="1.1" id="Layer_1" xmlns="http://www.w3.org/2000/svg" xmlns:xlink="http://www.w3.org/1999/xlink" x="0px" y="0px"
	 width="40px" height="40px" viewBox="0 0 40 40" enable-background="new 0 0 40 40" xml:space="preserve">
<g>
	<defs>
		<rect id="SVGID_1_" width="40" height="40"/>
	</defs>
	<clipPath id="SVGID_2_">
		<use xlink:href="#SVGID_1_"  overflow="visible"/>
	</clipPath>
	<path clip-path="url(#SVGID_2_)" fill="#CCCCCC" d="M27.812,38.188l-17.511,1.682c-1.096,0.097-1.85-0.741-1.946-1.837L6.061,16
		c0-4.001,4.552-11.257,5.647-11.353l3.733-0.362l12.905,0.88c1.095-0.096,2.069,0.722,2.166,1.818l2.187,24.99l5.373,1.537
		C38.166,34.606,31.306,37.938,27.812,38.188"/>
	<path clip-path="url(#SVGID_2_)" fill="#5D5D5D" d="M34.396,35.752l-20.92,1.83c-1.096,0.096-2.071-0.723-2.167-1.818L8.782,8.876
		C8.687,7.781,11.839,3.353,13,3l18.433-1.119c1.095-0.095,2.069,0.723,2.166,1.818l4.366,29.676
		C38.062,34.471,35.492,35.656,34.396,35.752"/>
	<path clip-path="url(#SVGID_2_)" fill="#E8E8E8" d="M36.472,34.566l-20.92,1.83c-1.096,0.096-2.071-0.723-2.167-1.818
		l-1.481-16.934l1.158-6.124l-0.61-6.975c-0.096-1.096,0.722-2.071,1.818-2.167l20.92-1.83c1.096-0.096,2.071,0.722,2.167,1.818
		l0.61,6.975l-1.158,6.124l1.481,16.934C38.386,33.495,37.567,34.471,36.472,34.566"/>
	<polygon clip-path="url(#SVGID_2_)" fill="#C6C6C6" points="36.809,15.464 11.903,17.645 13.062,11.521 37.967,9.34 	"/>
	<polygon clip-path="url(#SVGID_2_)" fill="#1C9FAC" points="35.017,13.99 14.378,15.797 14.853,12.995 35.524,11.185 	"/>
	<line clip-path="url(#SVGID_2_)" fill="#FFFFFF" x1="24.395" y1="7.141" x2="35.555" y2="6.164"/>
	<path clip-path="url(#SVGID_2_)" fill="#1B1919" d="M24.395,8.141c-0.513,0-0.949-0.392-0.995-0.913
		c-0.048-0.55,0.358-1.035,0.909-1.083l11.16-0.977c0.549-0.053,1.035,0.359,1.083,0.909c0.048,0.55-0.358,1.035-0.909,1.083
		l-11.16,0.977C24.453,8.14,24.424,8.141,24.395,8.141"/>
	<polygon clip-path="url(#SVGID_2_)" fill="#9E9E9E" points="34.005,5.295 24.291,6.146 23.801,0.542 24.169,1.514 24.83,0.453 
		26.224,1.333 27.569,0.212 28.512,1.134 29.997,0 31.231,0.896 32.149,0.034 33.011,0.74 33.362,0.034 	"/>
	<polygon clip-path="url(#SVGID_2_)" fill="#FFFFFF" points="35.089,6.205 24.908,7.096 24.419,1.493 25.253,2.422 25.913,1.362 
		27.308,2.243 28.652,1.122 29.596,2.042 31.08,0.909 32.314,1.805 33.232,1.049 34.095,1.648 34.445,0.942 	"/>
	<line clip-path="url(#SVGID_2_)" fill="#9E9E9E" x1="16.922" y1="21.221" x2="18.915" y2="21.047"/>
	<path clip-path="url(#SVGID_2_)" fill="#B5B5B5" d="M16.921,22.221c-0.513,0-0.95-0.393-0.995-0.913
		c-0.048-0.55,0.359-1.035,0.909-1.083l1.993-0.174c0.565-0.052,1.035,0.359,1.083,0.909c0.048,0.55-0.359,1.035-0.909,1.083
		l-1.993,0.174C16.979,22.22,16.95,22.221,16.921,22.221"/>
	<line clip-path="url(#SVGID_2_)" fill="#9E9E9E" x1="23.896" y1="20.61" x2="25.888" y2="20.437"/>
	<path clip-path="url(#SVGID_2_)" fill="#B5B5B5" d="M23.895,21.61c-0.513,0-0.949-0.393-0.995-0.913
		c-0.048-0.55,0.358-1.035,0.909-1.083l1.993-0.174c0.55-0.053,1.035,0.358,1.083,0.909c0.048,0.55-0.358,1.034-0.909,1.083
		l-1.993,0.174C23.953,21.609,23.924,21.61,23.895,21.61"/>
	<line clip-path="url(#SVGID_2_)" fill="#9E9E9E" x1="30.869" y1="20" x2="32.861" y2="19.826"/>
	<path clip-path="url(#SVGID_2_)" fill="#B5B5B5" d="M30.868,21c-0.513,0-0.949-0.392-0.995-0.913
		c-0.048-0.55,0.358-1.035,0.909-1.083l1.992-0.174c0.542-0.048,1.035,0.358,1.083,0.908c0.048,0.551-0.358,1.037-0.909,1.084
		l-1.992,0.174C30.927,20.999,30.897,21,30.868,21"/>
	<line clip-path="url(#SVGID_2_)" fill="#9E9E9E" x1="17.358" y1="26.202" x2="19.351" y2="26.028"/>
	<path clip-path="url(#SVGID_2_)" fill="#B5B5B5" d="M17.357,27.202c-0.513,0-0.95-0.393-0.995-0.913
		c-0.048-0.55,0.358-1.035,0.909-1.083l1.992-0.175c0.55-0.056,1.036,0.358,1.084,0.909c0.048,0.55-0.359,1.035-0.909,1.083
		l-1.993,0.175C17.417,27.201,17.386,27.202,17.357,27.202"/>
	<line clip-path="url(#SVGID_2_)" fill="#9E9E9E" x1="24.332" y1="25.592" x2="26.324" y2="25.418"/>
	<path clip-path="url(#SVGID_2_)" fill="#B5B5B5" d="M24.331,26.592c-0.513,0-0.949-0.393-0.995-0.912
		c-0.049-0.551,0.358-1.036,0.908-1.084l1.992-0.175c0.567-0.048,1.036,0.359,1.084,0.908c0.049,0.551-0.358,1.036-0.908,1.084
		l-1.992,0.175C24.39,26.591,24.36,26.592,24.331,26.592"/>
	<line clip-path="url(#SVGID_2_)" fill="#9E9E9E" x1="31.306" y1="24.981" x2="33.297" y2="24.807"/>
	<path clip-path="url(#SVGID_2_)" fill="#B5B5B5" d="M31.305,25.981c-0.513,0-0.949-0.393-0.995-0.912
		c-0.049-0.551,0.358-1.036,0.908-1.084l1.992-0.175c0.567-0.052,1.036,0.358,1.084,0.908c0.049,0.551-0.358,1.036-0.908,1.084
		l-1.992,0.175C31.363,25.98,31.334,25.981,31.305,25.981"/>
	<line clip-path="url(#SVGID_2_)" fill="#9E9E9E" x1="17.794" y1="31.183" x2="19.787" y2="31.009"/>
	<path clip-path="url(#SVGID_2_)" fill="#919191" d="M17.793,32.183c-0.513,0-0.95-0.393-0.995-0.913
		c-0.048-0.55,0.359-1.035,0.909-1.083l1.993-0.174c0.565-0.056,1.035,0.359,1.083,0.909s-0.358,1.035-0.909,1.083l-1.993,0.174
		C17.852,32.182,17.822,32.183,17.793,32.183"/>
	<line clip-path="url(#SVGID_2_)" fill="#9E9E9E" x1="24.768" y1="30.572" x2="26.76" y2="30.398"/>
	<path clip-path="url(#SVGID_2_)" fill="#B5B5B5" d="M24.767,31.572c-0.513,0-0.95-0.393-0.995-0.913
		c-0.048-0.55,0.359-1.035,0.909-1.083l1.993-0.174c0.545-0.052,1.035,0.359,1.083,0.909s-0.359,1.035-0.909,1.083l-1.993,0.174
		C24.825,31.571,24.796,31.572,24.767,31.572"/>
	<line clip-path="url(#SVGID_2_)" fill="#9E9E9E" x1="31.741" y1="29.962" x2="33.733" y2="29.788"/>
	<path clip-path="url(#SVGID_2_)" fill="#DDA947" d="M31.74,30.962c-0.513,0-0.95-0.393-0.995-0.913
		c-0.048-0.55,0.359-1.035,0.909-1.083l1.992-0.174c0.546-0.047,1.036,0.359,1.083,0.909c0.048,0.55-0.359,1.035-0.909,1.083
		l-1.992,0.174C31.799,30.961,31.77,30.962,31.74,30.962"/>
</g>
</svg>
