<?xml version="1.0" encoding="utf-8"?>
<!-- Generator: Adobe Illustrator 19.2.0, SVG Export Plug-In . SVG Version: 6.00 Build 0)  -->
<svg version="1.1" id="Слой_1" xmlns="http://www.w3.org/2000/svg" xmlns:xlink="http://www.w3.org/1999/xlink" x="0px" y="0px"
	 viewBox="0 0 33 30" style="enable-background:new 0 0 33 30;" xml:space="preserve">
<style type="text/css">
	.st0{fill:#181818;}
</style>
<path class="st0" d="M32.5,29h-4V13c4,0,4-4.4,4-6c0-2.1-2.7-5.9-3.2-6.6C29.1,0.2,28.8,0,28.5,0h-23h-1h0h0C4.3,0,4,0.1,3.9,0.2
	C1.4,2.1,0.5,6.6,0.5,6.8c0,0.1,0,0.1,0,0.2c0,2.2,0.9,6,4,6v16h-4C0.2,29,0,29.2,0,29.5S0.2,30,0.5,30h4h24h4
	c0.3,0,0.5-0.2,0.5-0.5S32.8,29,32.5,29z M1.5,7c0,0,0.8-4.4,3-6h0c0.1,0,1,0,1,0h23c0,0,3,4.1,3,6s-0.1,5-3,5s-3-5-3-5s0,5-3,5
	c0,0,0,0,0,0c0,0-3,0-3-5c0,0.4-0.1,5-3,5c-3,0-3-4.8-3-5c0,0.2-0.1,5-3,5c-3,0-3-5-3-5s0,5-3,5S1.5,7,1.5,7z M9.5,12.9
	c0.3,0.1,0.6,0.1,1,0.1c1.4,0,2.4-0.8,3-1.8c0.2,0.3,0.4,0.6,0.6,0.9c0.6,0.6,1.5,1,2.4,1c1.4,0,2.4-0.7,3-1.8
	c1.2,1.8,2.9,1.8,3,1.8c0,0,0,0,0.1,0c0.3,0,0.7,0,1-0.1V25h-14V12.9z M5.5,29V12.9c0.9-0.3,1.5-0.9,2-1.7c0.3,0.5,0.6,0.9,1,1.2V26
	h16V12.3c0.4-0.3,0.7-0.7,1-1.2c0.5,0.8,1.1,1.4,2,1.7V29H5.5z"/>
</svg>
