<?xml version="1.0" encoding="utf-8"?>
<!-- Generator: Adobe Illustrator 19.2.0, SVG Export Plug-In . SVG Version: 6.00 Build 0)  -->
<svg version="1.1" id="Слой_1" xmlns="http://www.w3.org/2000/svg" xmlns:xlink="http://www.w3.org/1999/xlink" x="0px" y="0px"
	 viewBox="0 0 40 26.3" style="enable-background:new 0 0 40 26.3;" xml:space="preserve">
<style type="text/css">
	.st0{fill:#D2BE5B;}
</style>
<g>
	<path class="st0" d="M39.8,9.4l-4-6C35.6,3.2,35.3,3,35,3h-3V1V0h-1H9H8v1v2H5C4.7,3,4.4,3.2,4.2,3.4l-4,6C0.1,9.6,0,9.8,0,10
		c0,1.8,1,3,2.5,3c0.5,0,1-0.1,1.4-0.4V25c0,0.7,0.6,1.3,1.3,1.3h29.6c0.7,0,1.3-0.6,1.3-1.3V12.6c0.4,0.2,0.9,0.4,1.4,0.4
		c1.2,0,2.5-0.8,2.5-3C40,9.8,39.9,9.6,39.8,9.4z M9,1h22v2H9V1z M17,25v-6c0,0,0-3,3-3c2.9,0,3,3,3,3v6H17z M34.8,25.3H24V25v-6
		c0-1.6-1.1-4-4-4c-1.2,0-2.1,0.4-2.8,1.1C16,17.2,16,18.8,16,19v6v0.3H5.3C5.1,25.3,5,25.2,5,25V12.6C5.4,12.8,5.9,13,6.4,13
		c0.7,0,1.4-0.3,1.9-0.7c0.5,0.5,1.2,0.7,1.9,0.7c0.7,0,1.4-0.3,1.9-0.7c0.5,0.5,1.2,0.7,1.9,0.7s1.4-0.3,1.9-0.7
		c0.5,0.5,1.2,0.7,1.9,0.7c0.7,0,1.4-0.3,1.9-0.7c0.5,0.5,1.2,0.7,1.9,0.7s1.4-0.3,1.9-0.7c0.5,0.5,1.2,0.7,1.9,0.7
		c0.7,0,1.4-0.3,1.9-0.7c0.5,0.5,1.2,0.7,1.9,0.7c0.7,0,1.4-0.3,1.9-0.7c0.5,0.5,1.2,0.7,1.9,0.7c0.5,0,1-0.1,1.4-0.4V25
		C35.1,25.2,35,25.3,34.8,25.3z M37.5,12c-1.1,0-1.9-0.9-1.9-1.9c0,1.1-0.9,1.9-1.9,1.9s-1.9-0.9-1.9-1.9c0,1.1-0.9,1.9-1.9,1.9
		c-1.1,0-1.9-0.9-1.9-1.9c0,1.1-0.9,1.9-1.9,1.9c-1.1,0-1.9-0.9-1.9-1.9c0,1.1-0.9,1.9-1.9,1.9S20,11.1,20,10c0,1.1-0.9,1.9-1.9,1.9
		c-1.1,0-1.9-0.9-1.9-1.9c0,1.1-0.9,1.9-1.9,1.9s-1.9-0.9-1.9-1.9c0,1.1-0.9,1.9-1.9,1.9c-1.1,0-1.9-0.9-1.9-1.9
		c0,1.1-0.9,1.9-1.9,1.9S4.5,11.1,4.5,10c0,1.1-0.9,1.9-1.9,1.9C1.5,12,1,11.1,1,10l4-6h3h1h22h1h3l4,6C39,11.1,38.6,12,37.5,12z"/>
	<path class="st0" d="M8,22h4v-6H8V22z M9,17h2v4H9V17z"/>
	<path class="st0" d="M28,22h4v-6h-4V22z M29,17h2v4h-2V17z"/>
	<circle class="st0" cx="21" cy="21" r="1"/>
</g>
</svg>
