<?xml version="1.0" encoding="utf-8"?>
<!-- Generator: Adobe Illustrator 16.0.4, SVG Export Plug-In . SVG Version: 6.00 Build 0)  -->
<!DOCTYPE svg PUBLIC "-//W3C//DTD SVG 1.1//EN" "http://www.w3.org/Graphics/SVG/1.1/DTD/svg11.dtd">
<svg version="1.1" id="Layer_1" xmlns="http://www.w3.org/2000/svg" xmlns:xlink="http://www.w3.org/1999/xlink" x="0px" y="0px"
	 width="24.291px" height="37.871px" viewBox="0 0 24.291 37.871" enable-background="new 0 0 24.291 37.871" xml:space="preserve">
<rect x="0.484" y="-0.861" transform="matrix(-0.4185 -0.9082 0.9082 -0.4185 2.9429 3.1617)" fill="#E9C5BA" width="4" height="3"/>
<g>
	<defs>
		<rect id="SVGID_1_" x="-11.97" y="-2.129" width="40" height="40"/>
	</defs>
	<clipPath id="SVGID_2_">
		<use xlink:href="#SVGID_1_"  overflow="visible"/>
	</clipPath>
	<path clip-path="url(#SVGID_2_)" fill="#CBCBCB" d="M10.124,13.634c-2.29-0.102-3.072-1.888-3.072-1.888L5.796,9.021L2.03,0.848
		L0,8.39l1.255,2.724l1.256,2.725c0,0,0.85,1.845-0.561,3.562c-1.349,1.641-0.561,3.561-0.561,3.561l5.86,12.715l5.235,4.194
		l0.712-22.349C13.196,15.521,12.302,13.73,10.124,13.634"/>
	<path clip-path="url(#SVGID_2_)" fill="#4C384B" d="M12.848,12.378c-2.29-0.102-3.071-1.888-3.071-1.888L8.52,7.766L5.172,0.5
		L0.631,2.593l3.348,7.265l1.256,2.725c0,0,0.85,1.845-0.561,3.562c-1.349,1.641-0.561,3.562-0.561,3.562l8.372,18.163l11.806-5.439
		l-8.37-18.164C15.92,14.266,15.027,12.475,12.848,12.378"/>
	<path clip-path="url(#SVGID_2_)" fill="#876C7C" d="M12.359,13.705c-2.29-0.102-3.072-1.888-3.072-1.888L8.031,9.093L4.265,0.919
		L3.357,1.337l3.766,8.174l1.256,2.725c0,0,0.152,0.329,1.023,2.221c0.623,1.351,1.927,1.487,2.611,1.61
		c0.945,0.17,2.006,1.24,2.408,2.114l7.145,15.505l1.816-0.837l-7.951-17.256C15.431,15.593,14.537,13.802,12.359,13.705"/>
	
		<line clip-path="url(#SVGID_2_)" fill="none" stroke="#4C384B" stroke-linecap="round" stroke-miterlimit="10" x1="0.632" y1="2.593" x2="5.173" y2="0.5"/>
	
		<rect x="7.866" y="21.251" transform="matrix(0.9082 -0.4186 0.4186 0.9082 -8.9246 7.822)" clip-path="url(#SVGID_2_)" fill="#E0E0E0" width="10.999" height="6.001"/>
	
		<rect x="9.366" y="22.751" transform="matrix(-0.9082 0.4185 -0.4185 -0.9082 35.6534 40.6842)" clip-path="url(#SVGID_2_)" fill="#E0E0E0" width="8" height="3"/>
	<path clip-path="url(#SVGID_2_)" fill="#BCBCBC" d="M16.125,21.879l0.837,1.815l-6.357,2.931l-0.837-1.817L16.125,21.879z
		 M16.615,20.552l-0.907,0.419L9.349,23.9l-0.908,0.419l0.419,0.908l0.837,1.816l0.418,0.908l0.908-0.419l6.358-2.93l0.908-0.418
		l-0.418-0.908l-0.837-1.816L16.615,20.552z"/>
</g>
</svg>
