<?xml version="1.0" encoding="utf-8"?>
<!-- Generator: Adobe Illustrator 16.0.4, SVG Export Plug-In . SVG Version: 6.00 Build 0)  -->
<!DOCTYPE svg PUBLIC "-//W3C//DTD SVG 1.1//EN" "http://www.w3.org/Graphics/SVG/1.1/DTD/svg11.dtd">
<svg version="1.1" id="Layer_1" xmlns="http://www.w3.org/2000/svg" xmlns:xlink="http://www.w3.org/1999/xlink" x="0px" y="0px"
	 width="69.13px" height="69.68px" viewBox="0 0 69.13 69.68" enable-background="new 0 0 69.13 69.68" xml:space="preserve">
<g>
	<defs>
		<rect id="SVGID_1_" x="-11.768" y="-13.984" width="100" height="100"/>
	</defs>
	<clipPath id="SVGID_2_">
		<use xlink:href="#SVGID_1_"  overflow="visible"/>
	</clipPath>
	<path clip-path="url(#SVGID_2_)" fill="#E6C3B8" d="M68.24,49.183c0-0.526-0.321-2.705-0.847-2.684
		c-0.705,0.028-0.533,1.919-0.908,1.919s0.265-3.063-0.759-3.065c-0.788-0.001-0.68,3.065-1.022,3.065
		c-0.438,0,0.203-3.066-0.582-3.066c-0.688,0-0.87,1.897-0.879,2.078c-0.045,0.888-0.095,1.71-0.148,2.504L63,49.705
		c-0.051-0.144-0.171-0.423-0.187-0.463c-0.201-0.487-0.916-1.369-1.426-1.233c-0.467,0.125-0.52,0.56-0.35,1.284l1.759,4.338
		c-0.553,5.649-1.312,8.208-1.946,9.711c-0.759,0.94-2.408,0.874-3.393,0.733L28.84,54.843c-1.31-0.423-2.722,0.298-3.146,1.614
		c-0.423,1.313,0.299,2.722,1.613,3.146l29.384,9.462c0.86,0.363,1.94,0.615,3.052,0.615c1.926,0,3.946-0.758,5.068-3.01
		c1.228-2.463,2.47-3.688,3.177-12.995c0.043-0.572,0.084-1.167,0.124-1.786c0.044-0.704,0.086-1.438,0.125-2.207
		C68.244,49.531,68.24,49.226,68.24,49.183"/>
	<path clip-path="url(#SVGID_2_)" fill="#7E4241" d="M44.42,59.871c-2.684-0.891-5.556-1.86-8.32-2.811
		c-1.306-0.446-2.728,0.247-3.177,1.554c-0.448,1.306,0.247,2.728,1.552,3.176c2.372,0.814,5.305,1.812,8.238,2.789"/>
	<path clip-path="url(#SVGID_2_)" fill="#CC504B" d="M13.755,48.052c0,0,7.959,13.545,31.103,6.835c0,0-3.216,7.55-18.071,14.611
		C12.975,59.02,13.755,48.052,13.755,48.052"/>
	<path clip-path="url(#SVGID_2_)" fill="#2A1F2F" d="M53.78,15.385c-3.667,4.888-6.333,6.556-18.333,7.779
		c-0.629,0.116-1.255,0.198-1.879,0.264c2.518-6.497,7.998-22.77-0.077-23.253c-14.12-0.844-13.404,7.989-13.404,7.989l1.099,13.682
		c-6.077-2.143-10.307-5.695-10.406-7.182c-3.409-5.26-7.488-0.381-7.332,1.423c1.09,12.577,11.165,17.799,11.165,17.799
		c3.846-6.122,7.972-8.817,14.327-9.068l3.551,1.259c0,0,0.181-0.415,0.475-1.133c13.683,1.289,14.905,10.053,14.905,10.053
		C60.538,25.832,53.78,15.385,53.78,15.385"/>
	<path clip-path="url(#SVGID_2_)" fill="#E6C3B8" d="M50.49,42.371c0,10.631-8.619,19.25-19.25,19.25
		c-10.631,0-19.25-8.619-19.25-19.25c0-10.631,8.619-19.25,19.25-19.25C41.871,23.12,50.49,31.739,50.49,42.371"/>
	<path clip-path="url(#SVGID_2_)" fill="#201600" d="M29.121,34.998c0,1.289-0.522,2.333-1.167,2.333
		c-0.644,0-1.166-1.044-1.166-2.333c0-1.289,0.522-2.333,1.166-2.333C28.599,32.665,29.121,33.709,29.121,34.998"/>
	<path clip-path="url(#SVGID_2_)" fill="#201600" d="M46.121,35.998c0,1.289-0.521,2.333-1.167,2.333
		c-0.644,0-1.166-1.044-1.166-2.333c0-1.289,0.522-2.333,1.166-2.333C45.599,33.665,46.121,34.709,46.121,35.998"/>
	<path clip-path="url(#SVGID_2_)" fill="#C5625A" d="M39.038,40.082c0,0.966-1.194,1.75-2.667,1.75c-1.472,0-2.666-0.784-2.666-1.75
		c0-0.968,1.194-1.75,2.666-1.75C37.844,38.332,39.038,39.114,39.038,40.082"/>
	<path clip-path="url(#SVGID_2_)" fill="#41384D" d="M10.841,14.765c0,0,5.309,17.291,20.833,15.833
		c16.197-1.521,20.576-9.273,22.834-13.833c-0.345-3.809-5.538-4.723-6.334-2.167c-1.511,4.858-6.333,6.334-6.333,6.334l-0.5-10.667
		c0,0,0.363-11.434-10.024-10.167c-7.06,0.862-6.809,7.5-6.809,7.5l1.166,14.667C25.674,22.265,15.174,18.765,10.841,14.765"/>
	<path clip-path="url(#SVGID_2_)" fill="#2A1F2F" d="M43.788,50.832c0,3.748-4.925,6.787-11,6.787s-11-3.039-11-6.787
		s4.925-6.787,11-6.787S43.788,47.083,43.788,50.832"/>
	<path clip-path="url(#SVGID_2_)" fill="#FFFFFF" d="M30.788,47.245c1.375,0,1.437-1.062,1.437-1.062l0.022-2.195
		c-1.03,0.031-2.022,0.146-2.959,0.341v1.854C29.288,46.182,29.413,47.245,30.788,47.245"/>
	<path clip-path="url(#SVGID_2_)" fill="#FFFFFF" d="M34.913,47.261c1.375,0,1.437-1.062,1.437-1.062l0.013-1.876
		c-0.933-0.198-1.922-0.318-2.95-0.354v2.23C33.413,46.2,33.538,47.261,34.913,47.261"/>
	<path clip-path="url(#SVGID_2_)" fill="#262626" d="M66.351,49.229c0,0-3.642,11.581-8.747,11.694
		c-5.106,0.114-5.332-3.544-5.332-3.544l2.986-6.609c0,0,0.55-1.11,1.544-0.95s2.801,0.507,2.801,0.507s2.868-4.625,2.828-8.396
		l-2.633-1.26c0,0-0.906-0.419-0.675-1.627c0.2-1.041,1.094-4.852,1.337-5.885c0.062-0.264,0.163-0.519,0.313-0.745
		c0.546-0.824,2.101-2.216,5.801-0.183C72.453,33.976,66.351,49.229,66.351,49.229"/>
	<path clip-path="url(#SVGID_2_)" fill="#E6C3B8" d="M64.635,58.216l-2.759-7.338c-0.171-0.724-0.117-1.159,0.35-1.284
		c0.509-0.136,1.224,0.746,1.425,1.233l2.282,4.423"/>
	<path clip-path="url(#SVGID_2_)" fill="#E6C3B8" d="M65.421,53.898l-2.759-7.338c-0.17-0.724-0.117-1.159,0.351-1.284
		c0.509-0.136,1.224,0.746,1.425,1.233l2.282,4.423"/>
	<path clip-path="url(#SVGID_2_)" fill="#E6C3B8" d="M66.771,50.418l-2.822-6.858c-0.17-0.724-0.117-1.159,0.35-1.284
		c0.51-0.137,1.225,0.746,1.425,1.233l1.856,3.058"/>
	<line clip-path="url(#SVGID_2_)" fill="#E6C3B8" x1="2.095" y1="31.934" x2="0" y2="29.704"/>
</g>
</svg>
