<?xml version="1.0" encoding="utf-8"?>
<!-- Generator: Adobe Illustrator 16.0.4, SVG Export Plug-In . SVG Version: 6.00 Build 0)  -->
<!DOCTYPE svg PUBLIC "-//W3C//DTD SVG 1.1//EN" "http://www.w3.org/Graphics/SVG/1.1/DTD/svg11.dtd">
<svg version="1.1" id="Layer_1" xmlns="http://www.w3.org/2000/svg" xmlns:xlink="http://www.w3.org/1999/xlink" x="0px" y="0px"
	 width="30.54px" height="40.001px" viewBox="0 0 30.54 40.001" enable-background="new 0 0 30.54 40.001" xml:space="preserve">
<g>
	<defs>
		<rect id="SVGID_1_" x="-7.861" width="40" height="40"/>
	</defs>
	<clipPath id="SVGID_2_">
		<use xlink:href="#SVGID_1_"  overflow="visible"/>
	</clipPath>
	<path clip-path="url(#SVGID_2_)" fill="#CCCCCC" d="M23.713,38.159L4.794,39.993c-1.096,0.096-2.071-0.723-2.167-1.818
		L0.008,10.289c-0.096-1.095,0.722-2.07,1.817-2.167L8.35,5.551l14.395-1.262c1.096-0.096,2.071,0.722,2.167,1.818l2.191,24.989
		l-1.571,4.896C25.627,37.088,24.81,38.062,23.713,38.159"/>
	<path clip-path="url(#SVGID_2_)" fill="#DB4531" d="M28.713,33.878L7.794,35.712c-1.096,0.096-2.071-0.722-2.167-1.818L3.008,4.008
		C2.912,2.913,3.73,1.938,4.825,1.841l20.92-1.833c1.096-0.096,2.071,0.722,2.167,1.818l2.62,29.885
		C30.627,32.807,29.81,33.782,28.713,33.878"/>
	<path clip-path="url(#SVGID_2_)" fill="#700900" d="M26.546,32.029L9.612,33.514c-1.096,0.096-2.071-0.723-2.167-1.817L5.175,5.795
		C5.079,4.699,5.897,3.724,6.992,3.628l16.937-1.484c1.095-0.096,2.07,0.722,2.167,1.817l2.27,25.901
		C28.46,30.958,27.643,31.934,26.546,32.029"/>
	<path clip-path="url(#SVGID_2_)" fill="#911707" d="M22.708,30.929l-11.954,1.048c-1.096,0.096-2.071-0.722-2.167-1.818
		L6.752,9.238C6.657,8.143,7.475,7.167,8.571,7.071l11.954-1.048c1.096-0.096,2.07,0.722,2.167,1.818l1.834,20.92
		C24.622,29.857,23.803,30.832,22.708,30.929"/>
	
		<polygon clip-path="url(#SVGID_2_)" fill="none" stroke="#1B1919" stroke-width="2" stroke-linecap="round" stroke-linejoin="round" stroke-miterlimit="10" points="
		4.163,19 3.373,8.143 2.584,8.231 	"/>
	
		<polygon clip-path="url(#SVGID_2_)" fill="none" stroke="#1B1919" stroke-width="2" stroke-linecap="round" stroke-linejoin="round" stroke-miterlimit="10" points="
		29.336,16.5 28.511,5.681 29.5,5.518 	"/>
	<path clip-path="url(#SVGID_2_)" fill="#1B1919" d="M3.541,10.188c-1.007,0-1.874-0.758-1.986-1.782
		C1.435,7.308,2.228,6.32,3.326,6.2l24.968-2.734c1.089-0.119,2.085,0.672,2.206,1.771c0.12,1.098-0.673,2.085-1.771,2.206
		L3.761,10.176C3.687,10.184,3.614,10.188,3.541,10.188"/>
	<path clip-path="url(#SVGID_2_)" fill="#424242" d="M28.321,3.332L12.042,5.114L3.145,6.109C2.218,6.312,1.553,7.138,1.571,8.088
		c0.002,0.113,0.108,0.2,0.22,0.191l15.376-1.206l13.14-1.983c0.114-0.017,0.199-0.13,0.171-0.242
		C30.245,3.885,29.324,3.222,28.321,3.332"/>
	
		<line clip-path="url(#SVGID_2_)" fill="none" stroke="#E57565" stroke-linecap="round" stroke-miterlimit="10" x1="26.658" y1="27.073" x2="25.833" y2="27.013"/>
	
		<line clip-path="url(#SVGID_2_)" fill="none" stroke="#E57565" stroke-linecap="round" stroke-miterlimit="10" x1="26.055" y1="20.472" x2="25.231" y2="20.535"/>
	
		<line clip-path="url(#SVGID_2_)" fill="none" stroke="#E57565" stroke-linecap="round" stroke-miterlimit="10" x1="25.521" y1="13.375" x2="24.697" y2="13.521"/>
</g>
<g>
	<defs>
		<path id="SVGID_3_" d="M16.496,13.1l4.999-3.834L16.496,13.1z"/>
	</defs>
	<clipPath id="SVGID_4_">
		<use xlink:href="#SVGID_3_"  overflow="visible"/>
	</clipPath>
	
		<linearGradient id="SVGID_5_" gradientUnits="userSpaceOnUse" x1="-7.8604" y1="40" x2="-6.8608" y2="40" gradientTransform="matrix(5 0 0 -5 55.7988 211.1836)">
		<stop  offset="0" style="stop-color:#911707"/>
		<stop  offset="0.168" style="stop-color:#9C1A08"/>
		<stop  offset="0.4671" style="stop-color:#BB220C"/>
		<stop  offset="0.8599" style="stop-color:#EC3013"/>
		<stop  offset="1" style="stop-color:#FF3515"/>
	</linearGradient>
	<rect x="16.496" y="9.266" clip-path="url(#SVGID_4_)" fill="url(#SVGID_5_)" width="4.999" height="3.834"/>
</g>
<g>
	<defs>
		<rect id="SVGID_6_" x="-7.861" width="40" height="40"/>
	</defs>
	<clipPath id="SVGID_7_">
		<use xlink:href="#SVGID_6_"  overflow="visible"/>
	</clipPath>
	
		<linearGradient id="SVGID_8_" gradientUnits="userSpaceOnUse" x1="-7.8608" y1="40" x2="-6.8608" y2="40" gradientTransform="matrix(6 0 0 -6 63.1597 251.1836)">
		<stop  offset="0" style="stop-color:#940000"/>
		<stop  offset="1" style="stop-color:#BF3000"/>
	</linearGradient>
	<polyline clip-path="url(#SVGID_7_)" fill="url(#SVGID_8_)" points="21.495,9.266 16.495,13.099 16.495,13.099 16.495,13.099 
		21.495,9.266 21.495,9.266 21.495,9.266 	"/>
</g>
<g>
	<defs>
		<path id="SVGID_9_" d="M16.496,20.099l4.999-3.833L16.496,20.099z"/>
	</defs>
	<clipPath id="SVGID_10_">
		<use xlink:href="#SVGID_9_"  overflow="visible"/>
	</clipPath>
	
		<linearGradient id="SVGID_11_" gradientUnits="userSpaceOnUse" x1="-7.8604" y1="40" x2="-6.8608" y2="40" gradientTransform="matrix(5 0 0 -5 55.7988 218.1836)">
		<stop  offset="0" style="stop-color:#911707"/>
		<stop  offset="0.168" style="stop-color:#9C1A08"/>
		<stop  offset="0.4671" style="stop-color:#BB220C"/>
		<stop  offset="0.8599" style="stop-color:#EC3013"/>
		<stop  offset="1" style="stop-color:#FF3515"/>
	</linearGradient>
	<rect x="16.496" y="16.266" clip-path="url(#SVGID_10_)" fill="url(#SVGID_11_)" width="4.999" height="3.833"/>
</g>
<g>
	<defs>
		<rect id="SVGID_12_" x="-7.861" width="40" height="40"/>
	</defs>
	<clipPath id="SVGID_13_">
		<use xlink:href="#SVGID_12_"  overflow="visible"/>
	</clipPath>
	
		<linearGradient id="SVGID_14_" gradientUnits="userSpaceOnUse" x1="-7.8608" y1="40.001" x2="-6.8608" y2="40.001" gradientTransform="matrix(6 0 0 -6 63.1597 258.1836)">
		<stop  offset="0" style="stop-color:#940000"/>
		<stop  offset="1" style="stop-color:#BF3000"/>
	</linearGradient>
	<polyline clip-path="url(#SVGID_13_)" fill="url(#SVGID_14_)" points="21.495,16.266 16.495,20.099 16.495,20.099 16.495,20.099 
		21.495,16.266 21.495,16.266 21.495,16.266 	"/>
</g>
<g>
	<defs>
		<path id="SVGID_15_" d="M16.496,27.099l4.999-3.833L16.496,27.099z"/>
	</defs>
	<clipPath id="SVGID_16_">
		<use xlink:href="#SVGID_15_"  overflow="visible"/>
	</clipPath>
	
		<linearGradient id="SVGID_17_" gradientUnits="userSpaceOnUse" x1="-7.8604" y1="40" x2="-6.8608" y2="40" gradientTransform="matrix(5 0 0 -5 55.7988 225.1836)">
		<stop  offset="0" style="stop-color:#911707"/>
		<stop  offset="0.0914" style="stop-color:#8C2212"/>
		<stop  offset="0.2544" style="stop-color:#7F4031"/>
		<stop  offset="0.47" style="stop-color:#6A7063"/>
		<stop  offset="0.7303" style="stop-color:#4CB3A7"/>
		<stop  offset="1" style="stop-color:#2AFFF6"/>
	</linearGradient>
	<rect x="16.496" y="23.266" clip-path="url(#SVGID_16_)" fill="url(#SVGID_17_)" width="4.999" height="3.833"/>
</g>
<g>
	<defs>
		<rect id="SVGID_18_" x="-7.861" width="40" height="40"/>
	</defs>
	<clipPath id="SVGID_19_">
		<use xlink:href="#SVGID_18_"  overflow="visible"/>
	</clipPath>
	
		<linearGradient id="SVGID_20_" gradientUnits="userSpaceOnUse" x1="-7.8608" y1="40" x2="-6.8608" y2="40" gradientTransform="matrix(6 0 0 -6 63.1597 265.1836)">
		<stop  offset="0" style="stop-color:#940000"/>
		<stop  offset="1" style="stop-color:#BF3000"/>
	</linearGradient>
	<polyline clip-path="url(#SVGID_19_)" fill="url(#SVGID_20_)" points="21.495,23.266 16.495,27.099 16.495,27.099 16.495,27.099 
		21.495,23.266 21.495,23.266 21.495,23.266 	"/>
</g>
<g>
	<defs>
		<path id="SVGID_21_" d="M19.789,30.574l1.706-1.309L19.789,30.574z"/>
	</defs>
	<clipPath id="SVGID_22_">
		<use xlink:href="#SVGID_21_"  overflow="visible"/>
	</clipPath>
	
		<linearGradient id="SVGID_23_" gradientUnits="userSpaceOnUse" x1="-7.8604" y1="40.001" x2="-6.8608" y2="40.001" gradientTransform="matrix(1.7068 0 0 -1.7068 33.2042 98.1905)">
		<stop  offset="0" style="stop-color:#911707"/>
		<stop  offset="0.2498" style="stop-color:#9D2112"/>
		<stop  offset="0.6949" style="stop-color:#BB3D2F"/>
		<stop  offset="1" style="stop-color:#D45346"/>
	</linearGradient>
	<rect x="19.789" y="29.266" clip-path="url(#SVGID_22_)" fill="url(#SVGID_23_)" width="1.706" height="1.309"/>
</g>
<g>
	<defs>
		<rect id="SVGID_24_" x="-7.861" width="40" height="40"/>
	</defs>
	<clipPath id="SVGID_25_">
		<use xlink:href="#SVGID_24_"  overflow="visible"/>
	</clipPath>
	
		<linearGradient id="SVGID_26_" gradientUnits="userSpaceOnUse" x1="-7.8608" y1="40" x2="-6.8608" y2="40" gradientTransform="matrix(2.7068 0 0 -2.7068 40.565 138.1903)">
		<stop  offset="0" style="stop-color:#940000"/>
		<stop  offset="1" style="stop-color:#BF3000"/>
	</linearGradient>
	<polyline clip-path="url(#SVGID_25_)" fill="url(#SVGID_26_)" points="21.495,29.266 19.788,30.575 19.788,30.575 19.788,30.575 
		21.495,29.266 21.495,29.266 21.495,29.266 	"/>
	
		<rect x="9.826" y="27.563" transform="matrix(0.8478 0.5304 -0.5304 0.8478 17.0825 -2.0295)" clip-path="url(#SVGID_25_)" fill="#D3D3D3" width="4.5" height="2.358"/>
</g>
</svg>
