<?xml version="1.0" encoding="UTF-8"?><!DOCTYPE svg PUBLIC "-//W3C//DTD SVG 1.1//EN" "http://www.w3.org/Graphics/SVG/1.1/DTD/svg11.dtd"><svg xmlns="http://www.w3.org/2000/svg" xmlns:xlink="http://www.w3.org/1999/xlink"><defs>
		<rect id="SVGID_1_" x="-11.97" y="-2.129" width="40" height="40"/>
	
		<rect id="SVGID_1_" x="-11.768" y="-13.984" width="100" height="100"/>
	
		<rect id="SVGID_1_" x="-7.861" width="40" height="40"/>
	
		<path id="SVGID_3_" d="M16.496,13.1l4.999-3.834L16.496,13.1z"/>
	
		<rect id="SVGID_6_" x="-7.861" width="40" height="40"/>
	
		<path id="SVGID_9_" d="M16.496,20.099l4.999-3.833L16.496,20.099z"/>
	
		<rect id="SVGID_12_" x="-7.861" width="40" height="40"/>
	
		<path id="SVGID_15_" d="M16.496,27.099l4.999-3.833L16.496,27.099z"/>
	
		<rect id="SVGID_18_" x="-7.861" width="40" height="40"/>
	
		<path id="SVGID_21_" d="M19.789,30.574l1.706-1.309L19.789,30.574z"/>
	
		<rect id="SVGID_24_" x="-7.861" width="40" height="40"/>
	
		<rect id="SVGID_1_" x="-6.211" y="-2.771" width="40" height="40"/>
	
			<rect id="SVGID_3_" x="-6.211" y="-2.771" width="40" height="40"/>
		
					<rect id="SVGID_5_" x="11.468" y="16.247" width="14.418" height="9.404"/>
				
		<rect id="SVGID_1_" x="-6.061" y="0" width="40" height="40"/>
	</defs><symbol id="apple" viewBox="0 0 30 34.8">
<style type="text/css">
	.st0{fill:#181818;}
</style>
<g>
	<path class="st0" d="M22,8.5c0,0-4.5,0.1-5.9,2.5c-0.1,0.1-0.4,0.3-1.1,0.3c-0.2,0-0.4,0-0.6-0.1c-0.1-1.1-0.6-6.7-3.2-8.2
		C11,2.9,10.7,3,10.6,3.2c-0.1,0.2-0.1,0.5,0.2,0.7c1.6,1,2.4,4.3,2.6,6.5C11.8,8.7,8.5,8.5,8,8.5c0,0,0,0,0,0c-7.1,0-8,5.3-8,11
		c0,9.5,3.1,15.3,8,15.3c0.7,0,1.5-0.1,2.3-0.4l0,0l0,0c0,0,1.8-0.7,4.5-0.7c1.6,0,3.2,0.3,4.8,0.8c0.7,0.2,1.4,0.3,2.1,0.3
		c5.7,0,8.2-7.7,8.2-15.3C30,13.8,29,8.5,22,8.5z M21.8,33.8c-0.6,0-1.2-0.1-1.8-0.3c-1.9-0.6-3.6-0.8-5.1-0.8c-3,0-4.9,0.8-4.9,0.8
		c-0.7,0.2-1.3,0.3-2,0.3c-4.7,0-7-6.4-7-14.3c0-5.9,1-10,7-10c0,0,3.9,0.2,5,2c0.3,0.5,1.2,0.8,2,0.8c0.8,0,1.7-0.3,2-0.8
		c1-1.9,4.9-2,5-2c6.1,0,7,4.2,7,10C29,26.7,26.6,33.8,21.8,33.8z"/>
	<path class="st0" d="M16,7.9C16.2,7.9,16.4,8,16.6,8c1.3,0,2.4-1.6,3.1-3.1c0.8-1.8,1.1-4.1-0.3-4.7C19.1,0,18.9,0,18.7,0h0
		c-1.3,0-2.4,1.6-3.1,3.1C14.9,4.9,14.5,7.2,16,7.9z M16.6,3.5C17.2,2.1,18.1,1,18.7,1c0.1,0,0.1,0,0.2,0c0.6,0.3,0.5,1.8-0.2,3.4
		C18.1,5.9,17.2,7,16.6,7c-0.1,0-0.1,0-0.2,0C15.8,6.7,15.9,5.2,16.6,3.5z"/>
	<path class="st0" d="M8.2,28c0,0-2.7-1.2-2.7-7.5c0-3.6,0.9-4.8,1.4-5.2c0.5-0.4,0.9-0.3,1-0.3c0.3,0.1,0.5-0.1,0.6-0.4
		c0.1-0.3-0.1-0.5-0.3-0.6c-0.1,0-0.9-0.2-1.8,0.4c-1.2,0.9-1.8,2.9-1.8,6c-0.1,7.1,3.2,8.4,3.3,8.5c0.1,0,0.1,0,0.2,0
		c0.2,0,0.4-0.1,0.5-0.3C8.6,28.4,8.4,28.1,8.2,28z"/>
</g>
</symbol><symbol id="apteka" viewBox="0 0 25 25">
<style type="text/css">
	.st0{fill:#181818;}
</style>
<path class="st0" d="M17,25H8v-8H0V8h8V0h9v8h8v9h-8V25z M9,24h7v-8h8V9h-8V1H9v8H1v7h8V24z"/>
</symbol><symbol id="bottle" viewBox="0 0 24.291 37.871">
<rect x="0.484" y="-0.861" transform="matrix(-0.4185 -0.9082 0.9082 -0.4185 2.9429 3.1617)" fill="#E9C5BA" width="4" height="3"/>
<g>
	
	<clipPath id="SVGID_2_">
		<use xlink:href="#SVGID_1_" overflow="visible"/>
	</clipPath>
	<path clip-path="url(#SVGID_2_)" fill="#CBCBCB" d="M10.124,13.634c-2.29-0.102-3.072-1.888-3.072-1.888L5.796,9.021L2.03,0.848
		L0,8.39l1.255,2.724l1.256,2.725c0,0,0.85,1.845-0.561,3.562c-1.349,1.641-0.561,3.561-0.561,3.561l5.86,12.715l5.235,4.194
		l0.712-22.349C13.196,15.521,12.302,13.73,10.124,13.634"/>
	<path clip-path="url(#SVGID_2_)" fill="#4C384B" d="M12.848,12.378c-2.29-0.102-3.071-1.888-3.071-1.888L8.52,7.766L5.172,0.5
		L0.631,2.593l3.348,7.265l1.256,2.725c0,0,0.85,1.845-0.561,3.562c-1.349,1.641-0.561,3.562-0.561,3.562l8.372,18.163l11.806-5.439
		l-8.37-18.164C15.92,14.266,15.027,12.475,12.848,12.378"/>
	<path clip-path="url(#SVGID_2_)" fill="#876C7C" d="M12.359,13.705c-2.29-0.102-3.072-1.888-3.072-1.888L8.031,9.093L4.265,0.919
		L3.357,1.337l3.766,8.174l1.256,2.725c0,0,0.152,0.329,1.023,2.221c0.623,1.351,1.927,1.487,2.611,1.61
		c0.945,0.17,2.006,1.24,2.408,2.114l7.145,15.505l1.816-0.837l-7.951-17.256C15.431,15.593,14.537,13.802,12.359,13.705"/>
	
		<line clip-path="url(#SVGID_2_)" fill="none" stroke="#4C384B" stroke-linecap="round" stroke-miterlimit="10" x1="0.632" y1="2.593" x2="5.173" y2="0.5"/>
	
		<rect x="7.866" y="21.251" transform="matrix(0.9082 -0.4186 0.4186 0.9082 -8.9246 7.822)" clip-path="url(#SVGID_2_)" fill="#E0E0E0" width="10.999" height="6.001"/>
	
		<rect x="9.366" y="22.751" transform="matrix(-0.9082 0.4185 -0.4185 -0.9082 35.6534 40.6842)" clip-path="url(#SVGID_2_)" fill="#E0E0E0" width="8" height="3"/>
	<path clip-path="url(#SVGID_2_)" fill="#BCBCBC" d="M16.125,21.879l0.837,1.815l-6.357,2.931l-0.837-1.817L16.125,21.879z
		 M16.615,20.552l-0.907,0.419L9.349,23.9l-0.908,0.419l0.419,0.908l0.837,1.816l0.418,0.908l0.908-0.419l6.358-2.93l0.908-0.418
		l-0.418-0.908l-0.837-1.816L16.615,20.552z"/>
</g>
</symbol><symbol id="call" viewBox="0 0 69.13 69.68">
<g>
	
	<clipPath id="SVGID_2_">
		<use xlink:href="#SVGID_1_" overflow="visible"/>
	</clipPath>
	<path clip-path="url(#SVGID_2_)" fill="#E6C3B8" d="M68.24,49.183c0-0.526-0.321-2.705-0.847-2.684
		c-0.705,0.028-0.533,1.919-0.908,1.919s0.265-3.063-0.759-3.065c-0.788-0.001-0.68,3.065-1.022,3.065
		c-0.438,0,0.203-3.066-0.582-3.066c-0.688,0-0.87,1.897-0.879,2.078c-0.045,0.888-0.095,1.71-0.148,2.504L63,49.705
		c-0.051-0.144-0.171-0.423-0.187-0.463c-0.201-0.487-0.916-1.369-1.426-1.233c-0.467,0.125-0.52,0.56-0.35,1.284l1.759,4.338
		c-0.553,5.649-1.312,8.208-1.946,9.711c-0.759,0.94-2.408,0.874-3.393,0.733L28.84,54.843c-1.31-0.423-2.722,0.298-3.146,1.614
		c-0.423,1.313,0.299,2.722,1.613,3.146l29.384,9.462c0.86,0.363,1.94,0.615,3.052,0.615c1.926,0,3.946-0.758,5.068-3.01
		c1.228-2.463,2.47-3.688,3.177-12.995c0.043-0.572,0.084-1.167,0.124-1.786c0.044-0.704,0.086-1.438,0.125-2.207
		C68.244,49.531,68.24,49.226,68.24,49.183"/>
	<path clip-path="url(#SVGID_2_)" fill="#7E4241" d="M44.42,59.871c-2.684-0.891-5.556-1.86-8.32-2.811
		c-1.306-0.446-2.728,0.247-3.177,1.554c-0.448,1.306,0.247,2.728,1.552,3.176c2.372,0.814,5.305,1.812,8.238,2.789"/>
	<path clip-path="url(#SVGID_2_)" fill="#CC504B" d="M13.755,48.052c0,0,7.959,13.545,31.103,6.835c0,0-3.216,7.55-18.071,14.611
		C12.975,59.02,13.755,48.052,13.755,48.052"/>
	<path clip-path="url(#SVGID_2_)" fill="#2A1F2F" d="M53.78,15.385c-3.667,4.888-6.333,6.556-18.333,7.779
		c-0.629,0.116-1.255,0.198-1.879,0.264c2.518-6.497,7.998-22.77-0.077-23.253c-14.12-0.844-13.404,7.989-13.404,7.989l1.099,13.682
		c-6.077-2.143-10.307-5.695-10.406-7.182c-3.409-5.26-7.488-0.381-7.332,1.423c1.09,12.577,11.165,17.799,11.165,17.799
		c3.846-6.122,7.972-8.817,14.327-9.068l3.551,1.259c0,0,0.181-0.415,0.475-1.133c13.683,1.289,14.905,10.053,14.905,10.053
		C60.538,25.832,53.78,15.385,53.78,15.385"/>
	<path clip-path="url(#SVGID_2_)" fill="#E6C3B8" d="M50.49,42.371c0,10.631-8.619,19.25-19.25,19.25
		c-10.631,0-19.25-8.619-19.25-19.25c0-10.631,8.619-19.25,19.25-19.25C41.871,23.12,50.49,31.739,50.49,42.371"/>
	<path clip-path="url(#SVGID_2_)" fill="#201600" d="M29.121,34.998c0,1.289-0.522,2.333-1.167,2.333
		c-0.644,0-1.166-1.044-1.166-2.333c0-1.289,0.522-2.333,1.166-2.333C28.599,32.665,29.121,33.709,29.121,34.998"/>
	<path clip-path="url(#SVGID_2_)" fill="#201600" d="M46.121,35.998c0,1.289-0.521,2.333-1.167,2.333
		c-0.644,0-1.166-1.044-1.166-2.333c0-1.289,0.522-2.333,1.166-2.333C45.599,33.665,46.121,34.709,46.121,35.998"/>
	<path clip-path="url(#SVGID_2_)" fill="#C5625A" d="M39.038,40.082c0,0.966-1.194,1.75-2.667,1.75c-1.472,0-2.666-0.784-2.666-1.75
		c0-0.968,1.194-1.75,2.666-1.75C37.844,38.332,39.038,39.114,39.038,40.082"/>
	<path clip-path="url(#SVGID_2_)" fill="#41384D" d="M10.841,14.765c0,0,5.309,17.291,20.833,15.833
		c16.197-1.521,20.576-9.273,22.834-13.833c-0.345-3.809-5.538-4.723-6.334-2.167c-1.511,4.858-6.333,6.334-6.333,6.334l-0.5-10.667
		c0,0,0.363-11.434-10.024-10.167c-7.06,0.862-6.809,7.5-6.809,7.5l1.166,14.667C25.674,22.265,15.174,18.765,10.841,14.765"/>
	<path clip-path="url(#SVGID_2_)" fill="#2A1F2F" d="M43.788,50.832c0,3.748-4.925,6.787-11,6.787s-11-3.039-11-6.787
		s4.925-6.787,11-6.787S43.788,47.083,43.788,50.832"/>
	<path clip-path="url(#SVGID_2_)" fill="#FFFFFF" d="M30.788,47.245c1.375,0,1.437-1.062,1.437-1.062l0.022-2.195
		c-1.03,0.031-2.022,0.146-2.959,0.341v1.854C29.288,46.182,29.413,47.245,30.788,47.245"/>
	<path clip-path="url(#SVGID_2_)" fill="#FFFFFF" d="M34.913,47.261c1.375,0,1.437-1.062,1.437-1.062l0.013-1.876
		c-0.933-0.198-1.922-0.318-2.95-0.354v2.23C33.413,46.2,33.538,47.261,34.913,47.261"/>
	<path clip-path="url(#SVGID_2_)" fill="#262626" d="M66.351,49.229c0,0-3.642,11.581-8.747,11.694
		c-5.106,0.114-5.332-3.544-5.332-3.544l2.986-6.609c0,0,0.55-1.11,1.544-0.95s2.801,0.507,2.801,0.507s2.868-4.625,2.828-8.396
		l-2.633-1.26c0,0-0.906-0.419-0.675-1.627c0.2-1.041,1.094-4.852,1.337-5.885c0.062-0.264,0.163-0.519,0.313-0.745
		c0.546-0.824,2.101-2.216,5.801-0.183C72.453,33.976,66.351,49.229,66.351,49.229"/>
	<path clip-path="url(#SVGID_2_)" fill="#E6C3B8" d="M64.635,58.216l-2.759-7.338c-0.171-0.724-0.117-1.159,0.35-1.284
		c0.509-0.136,1.224,0.746,1.425,1.233l2.282,4.423"/>
	<path clip-path="url(#SVGID_2_)" fill="#E6C3B8" d="M65.421,53.898l-2.759-7.338c-0.17-0.724-0.117-1.159,0.351-1.284
		c0.509-0.136,1.224,0.746,1.425,1.233l2.282,4.423"/>
	<path clip-path="url(#SVGID_2_)" fill="#E6C3B8" d="M66.771,50.418l-2.822-6.858c-0.17-0.724-0.117-1.159,0.35-1.284
		c0.51-0.137,1.225,0.746,1.425,1.233l1.856,3.058"/>
	<line clip-path="url(#SVGID_2_)" fill="#E6C3B8" x1="2.095" y1="31.934" x2="0" y2="29.704"/>
</g>
</symbol><symbol id="cart" viewBox="0 0 30.54 40.001">
<g>
	
	<clipPath id="SVGID_2_">
		<use xlink:href="#SVGID_1_" overflow="visible"/>
	</clipPath>
	<path clip-path="url(#SVGID_2_)" fill="#CCCCCC" d="M23.713,38.159L4.794,39.993c-1.096,0.096-2.071-0.723-2.167-1.818
		L0.008,10.289c-0.096-1.095,0.722-2.07,1.817-2.167L8.35,5.551l14.395-1.262c1.096-0.096,2.071,0.722,2.167,1.818l2.191,24.989
		l-1.571,4.896C25.627,37.088,24.81,38.062,23.713,38.159"/>
	<path clip-path="url(#SVGID_2_)" fill="#DB4531" d="M28.713,33.878L7.794,35.712c-1.096,0.096-2.071-0.722-2.167-1.818L3.008,4.008
		C2.912,2.913,3.73,1.938,4.825,1.841l20.92-1.833c1.096-0.096,2.071,0.722,2.167,1.818l2.62,29.885
		C30.627,32.807,29.81,33.782,28.713,33.878"/>
	<path clip-path="url(#SVGID_2_)" fill="#700900" d="M26.546,32.029L9.612,33.514c-1.096,0.096-2.071-0.723-2.167-1.817L5.175,5.795
		C5.079,4.699,5.897,3.724,6.992,3.628l16.937-1.484c1.095-0.096,2.07,0.722,2.167,1.817l2.27,25.901
		C28.46,30.958,27.643,31.934,26.546,32.029"/>
	<path clip-path="url(#SVGID_2_)" fill="#911707" d="M22.708,30.929l-11.954,1.048c-1.096,0.096-2.071-0.722-2.167-1.818
		L6.752,9.238C6.657,8.143,7.475,7.167,8.571,7.071l11.954-1.048c1.096-0.096,2.07,0.722,2.167,1.818l1.834,20.92
		C24.622,29.857,23.803,30.832,22.708,30.929"/>
	
		<polygon clip-path="url(#SVGID_2_)" fill="none" stroke="#1B1919" stroke-width="2" stroke-linecap="round" stroke-linejoin="round" stroke-miterlimit="10" points="
		4.163,19 3.373,8.143 2.584,8.231 	"/>
	
		<polygon clip-path="url(#SVGID_2_)" fill="none" stroke="#1B1919" stroke-width="2" stroke-linecap="round" stroke-linejoin="round" stroke-miterlimit="10" points="
		29.336,16.5 28.511,5.681 29.5,5.518 	"/>
	<path clip-path="url(#SVGID_2_)" fill="#1B1919" d="M3.541,10.188c-1.007,0-1.874-0.758-1.986-1.782
		C1.435,7.308,2.228,6.32,3.326,6.2l24.968-2.734c1.089-0.119,2.085,0.672,2.206,1.771c0.12,1.098-0.673,2.085-1.771,2.206
		L3.761,10.176C3.687,10.184,3.614,10.188,3.541,10.188"/>
	<path clip-path="url(#SVGID_2_)" fill="#424242" d="M28.321,3.332L12.042,5.114L3.145,6.109C2.218,6.312,1.553,7.138,1.571,8.088
		c0.002,0.113,0.108,0.2,0.22,0.191l15.376-1.206l13.14-1.983c0.114-0.017,0.199-0.13,0.171-0.242
		C30.245,3.885,29.324,3.222,28.321,3.332"/>
	
		<line clip-path="url(#SVGID_2_)" fill="none" stroke="#E57565" stroke-linecap="round" stroke-miterlimit="10" x1="26.658" y1="27.073" x2="25.833" y2="27.013"/>
	
		<line clip-path="url(#SVGID_2_)" fill="none" stroke="#E57565" stroke-linecap="round" stroke-miterlimit="10" x1="26.055" y1="20.472" x2="25.231" y2="20.535"/>
	
		<line clip-path="url(#SVGID_2_)" fill="none" stroke="#E57565" stroke-linecap="round" stroke-miterlimit="10" x1="25.521" y1="13.375" x2="24.697" y2="13.521"/>
</g>
<g>
	
	<clipPath id="SVGID_4_">
		<use xlink:href="#SVGID_3_" overflow="visible"/>
	</clipPath>
	
		<linearGradient id="SVGID_5_" gradientUnits="userSpaceOnUse" x1="-7.8604" y1="40" x2="-6.8608" y2="40" gradientTransform="matrix(5 0 0 -5 55.7988 211.1836)">
		<stop offset="0" style="stop-color:#911707"/>
		<stop offset="0.168" style="stop-color:#9C1A08"/>
		<stop offset="0.4671" style="stop-color:#BB220C"/>
		<stop offset="0.8599" style="stop-color:#EC3013"/>
		<stop offset="1" style="stop-color:#FF3515"/>
	</linearGradient>
	<rect x="16.496" y="9.266" clip-path="url(#SVGID_4_)" fill="url(#SVGID_5_)" width="4.999" height="3.834"/>
</g>
<g>
	
	<clipPath id="SVGID_7_">
		<use xlink:href="#SVGID_6_" overflow="visible"/>
	</clipPath>
	
		<linearGradient id="SVGID_8_" gradientUnits="userSpaceOnUse" x1="-7.8608" y1="40" x2="-6.8608" y2="40" gradientTransform="matrix(6 0 0 -6 63.1597 251.1836)">
		<stop offset="0" style="stop-color:#940000"/>
		<stop offset="1" style="stop-color:#BF3000"/>
	</linearGradient>
	<polyline clip-path="url(#SVGID_7_)" fill="url(#SVGID_8_)" points="21.495,9.266 16.495,13.099 16.495,13.099 16.495,13.099 
		21.495,9.266 21.495,9.266 21.495,9.266 	"/>
</g>
<g>
	
	<clipPath id="SVGID_10_">
		<use xlink:href="#SVGID_9_" overflow="visible"/>
	</clipPath>
	
		<linearGradient id="SVGID_11_" gradientUnits="userSpaceOnUse" x1="-7.8604" y1="40" x2="-6.8608" y2="40" gradientTransform="matrix(5 0 0 -5 55.7988 218.1836)">
		<stop offset="0" style="stop-color:#911707"/>
		<stop offset="0.168" style="stop-color:#9C1A08"/>
		<stop offset="0.4671" style="stop-color:#BB220C"/>
		<stop offset="0.8599" style="stop-color:#EC3013"/>
		<stop offset="1" style="stop-color:#FF3515"/>
	</linearGradient>
	<rect x="16.496" y="16.266" clip-path="url(#SVGID_10_)" fill="url(#SVGID_11_)" width="4.999" height="3.833"/>
</g>
<g>
	
	<clipPath id="SVGID_13_">
		<use xlink:href="#SVGID_12_" overflow="visible"/>
	</clipPath>
	
		<linearGradient id="SVGID_14_" gradientUnits="userSpaceOnUse" x1="-7.8608" y1="40.001" x2="-6.8608" y2="40.001" gradientTransform="matrix(6 0 0 -6 63.1597 258.1836)">
		<stop offset="0" style="stop-color:#940000"/>
		<stop offset="1" style="stop-color:#BF3000"/>
	</linearGradient>
	<polyline clip-path="url(#SVGID_13_)" fill="url(#SVGID_14_)" points="21.495,16.266 16.495,20.099 16.495,20.099 16.495,20.099 
		21.495,16.266 21.495,16.266 21.495,16.266 	"/>
</g>
<g>
	
	<clipPath id="SVGID_16_">
		<use xlink:href="#SVGID_15_" overflow="visible"/>
	</clipPath>
	
		<linearGradient id="SVGID_17_" gradientUnits="userSpaceOnUse" x1="-7.8604" y1="40" x2="-6.8608" y2="40" gradientTransform="matrix(5 0 0 -5 55.7988 225.1836)">
		<stop offset="0" style="stop-color:#911707"/>
		<stop offset="0.0914" style="stop-color:#8C2212"/>
		<stop offset="0.2544" style="stop-color:#7F4031"/>
		<stop offset="0.47" style="stop-color:#6A7063"/>
		<stop offset="0.7303" style="stop-color:#4CB3A7"/>
		<stop offset="1" style="stop-color:#2AFFF6"/>
	</linearGradient>
	<rect x="16.496" y="23.266" clip-path="url(#SVGID_16_)" fill="url(#SVGID_17_)" width="4.999" height="3.833"/>
</g>
<g>
	
	<clipPath id="SVGID_19_">
		<use xlink:href="#SVGID_18_" overflow="visible"/>
	</clipPath>
	
		<linearGradient id="SVGID_20_" gradientUnits="userSpaceOnUse" x1="-7.8608" y1="40" x2="-6.8608" y2="40" gradientTransform="matrix(6 0 0 -6 63.1597 265.1836)">
		<stop offset="0" style="stop-color:#940000"/>
		<stop offset="1" style="stop-color:#BF3000"/>
	</linearGradient>
	<polyline clip-path="url(#SVGID_19_)" fill="url(#SVGID_20_)" points="21.495,23.266 16.495,27.099 16.495,27.099 16.495,27.099 
		21.495,23.266 21.495,23.266 21.495,23.266 	"/>
</g>
<g>
	
	<clipPath id="SVGID_22_">
		<use xlink:href="#SVGID_21_" overflow="visible"/>
	</clipPath>
	
		<linearGradient id="SVGID_23_" gradientUnits="userSpaceOnUse" x1="-7.8604" y1="40.001" x2="-6.8608" y2="40.001" gradientTransform="matrix(1.7068 0 0 -1.7068 33.2042 98.1905)">
		<stop offset="0" style="stop-color:#911707"/>
		<stop offset="0.2498" style="stop-color:#9D2112"/>
		<stop offset="0.6949" style="stop-color:#BB3D2F"/>
		<stop offset="1" style="stop-color:#D45346"/>
	</linearGradient>
	<rect x="19.789" y="29.266" clip-path="url(#SVGID_22_)" fill="url(#SVGID_23_)" width="1.706" height="1.309"/>
</g>
<g>
	
	<clipPath id="SVGID_25_">
		<use xlink:href="#SVGID_24_" overflow="visible"/>
	</clipPath>
	
		<linearGradient id="SVGID_26_" gradientUnits="userSpaceOnUse" x1="-7.8608" y1="40" x2="-6.8608" y2="40" gradientTransform="matrix(2.7068 0 0 -2.7068 40.565 138.1903)">
		<stop offset="0" style="stop-color:#940000"/>
		<stop offset="1" style="stop-color:#BF3000"/>
	</linearGradient>
	<polyline clip-path="url(#SVGID_25_)" fill="url(#SVGID_26_)" points="21.495,29.266 19.788,30.575 19.788,30.575 19.788,30.575 
		21.495,29.266 21.495,29.266 21.495,29.266 	"/>
	
		<rect x="9.826" y="27.563" transform="matrix(0.8478 0.5304 -0.5304 0.8478 17.0825 -2.0295)" clip-path="url(#SVGID_25_)" fill="#D3D3D3" width="4.5" height="2.358"/>
</g>
</symbol><symbol id="check" viewBox="0 0 32.594 35.357">
<g>
	
	<clipPath id="SVGID_2_">
		<use xlink:href="#SVGID_1_" overflow="visible"/>
	</clipPath>
	<g clip-path="url(#SVGID_2_)">
		
		<clipPath id="SVGID_4_">
			<use xlink:href="#SVGID_3_" overflow="visible"/>
		</clipPath>
		<path clip-path="url(#SVGID_4_)" fill="#CCCCCC" d="M21.408,33.664L3.897,35.349c-1.096,0.096-1.849-0.741-1.946-1.837L0,15.465
			c-0.001-4,4.549-11.257,5.645-11.353l3.732-0.363l12.905,0.877c1.096-0.097,2.071,0.721,2.167,1.817l1.843,21.003l5.373,1.537
			C31.762,30.081,24.901,33.413,21.408,33.664"/>
		<path clip-path="url(#SVGID_4_)" fill="#5D5D5D" d="M27.991,31.226L7.071,33.061C5.976,33.158,5,32.34,4.904,31.244L2.72,8.341
			C2.624,7.246,4.138,4.352,5.778,2.654l19.591-1.313c1.097-0.096,2.071,0.722,2.167,1.817l4.025,25.69
			C31.657,29.944,29.087,31.13,27.991,31.226"/>
		<path clip-path="url(#SVGID_4_)" fill="#E8E8E8" d="M30.769,30.04l-20.92,1.835c-1.095,0.098-2.071-0.721-2.167-1.816
			L6.546,17.109L6,10.985L5.388,4.01C5.292,2.914,6.11,1.939,7.206,1.843l20.92-1.835c1.096-0.097,2.071,0.721,2.167,1.817
			L30.905,8.8l0.546,6.123l1.136,12.95C32.683,28.969,31.865,29.944,30.769,30.04"/>
		<path clip-path="url(#SVGID_4_)" fill="#1B1919" d="M11.643,27.642c-0.513,0-0.949-0.393-0.995-0.912
			c-0.048-0.551,0.358-1.036,0.909-1.084l16.847-1.482c0.549-0.053,1.035,0.359,1.084,0.909c0.048,0.55-0.358,1.035-0.909,1.083
			C28.578,26.156,11.671,27.642,11.643,27.642"/>
		
			<rect x="9.324" y="4.527" transform="matrix(0.9962 -0.0872 0.0872 0.9962 -1.0459 1.123)" clip-path="url(#SVGID_4_)" fill="#2A1F30" width="5.999" height="15.999"/>
		<path clip-path="url(#SVGID_4_)" fill="#605570" d="M28.961,19.096l-18.927,1.661c2.619-5.144,2.077-11.331-1.399-15.938
			l18.928-1.661C31.039,7.767,31.582,13.954,28.961,19.096z"/>
		<path clip-path="url(#SVGID_4_)" fill="#938B9E" d="M13.245,16.46l11.54-1.012c-1.786-2.223-2.07-5.47-0.7-7.97L12.546,8.491
			C11.175,10.99,11.46,14.237,13.245,16.46z"/>
		<path clip-path="url(#SVGID_4_)" fill="#7D728C" d="M26.5,15.297l-12.95,1.136c1.564-2.516,1.279-5.763-0.699-7.969l12.95-1.136
			C27.779,9.534,28.064,12.78,26.5,15.297z"/>
		<g opacity="0.25" clip-path="url(#SVGID_4_)">
			<g>
				
				<clipPath id="SVGID_6_">
					<use xlink:href="#SVGID_5_" overflow="visible"/>
				</clipPath>
				<polygon clip-path="url(#SVGID_6_)" points="24.418,24.514 11.468,25.651 12.848,18.501 14.019,20.407 15.662,16.247 
					17.829,18.065 19.734,16.894 21.988,19.708 23.719,16.543 25.886,18.362 				"/>
			</g>
		</g>
		<polygon clip-path="url(#SVGID_4_)" fill="#FFFFFF" points="26.498,25.334 13.547,26.471 14.84,18.327 16.011,20.232 
			17.655,16.072 19.822,17.89 21.725,16.719 23.981,19.533 25.71,16.369 27.878,18.187 		"/>
	</g>
</g>
</symbol><symbol id="coffee" viewBox="0 0 33.7 32.5">
<style type="text/css">
	.st0{fill:#547682;}
</style>
<g>
	<path class="st0" d="M33,16.2c-0.6-0.7-1.4-1.1-2.5-1.2c-2.4-0.1-3.7,0.7-4.5,1.6v-3.1c0-0.3-0.2-0.5-0.5-0.5h-24
		C1.2,13,1,13.2,1,13.5v4c0,0.1,0.2,11.5,8.9,14H0.5C0.2,31.5,0,31.7,0,32c0,0.3,0.2,0.5,0.5,0.5h26c0.3,0,0.5-0.2,0.5-0.5
		c0-0.3-0.2-0.5-0.5-0.5h-9.3c1.7-0.5,3.2-1.4,4.4-2.6c0.6-0.6,1.1-1.2,1.6-1.9c4-0.1,7.2-1.9,8.5-3c0.8-0.7,1.4-1.7,1.7-2.8
		C33.8,19.6,34,17.5,33,16.2z M20.9,28.2C19,30.1,16.6,31,13.5,31C2.2,30.9,2,18,2,17.5V14h23v3.5C25,17.6,24.9,24.3,20.9,28.2z
		 M32.4,21c-0.2,0.9-0.7,1.7-1.4,2.3c-1.1,0.9-3.8,2.5-7.2,2.7c1.5-2.7,1.9-5.6,2.1-7.2c0.1-0.4,0.7-2.9,4.6-2.7
		c0.8,0,1.4,0.3,1.7,0.8C33,17.8,32.7,19.9,32.4,21z"/>
	<path class="st0" d="M8.1,9.3c0,1.4,1,2.5,1.1,2.5C9.2,12,9.4,12,9.5,12c0.1,0,0.3,0,0.4-0.1c0.2-0.2,0.2-0.5,0-0.7
		c0,0-0.8-0.8-0.8-1.8c0-0.5,0.3-1,0.8-1.5c0.7-0.6,1.1-1.4,1.1-2.2c0-1.4-1-2.5-1.1-2.5C9.7,2.9,9.3,3,9.1,3.1C9,3.3,9,3.7,9.1,3.9
		c0,0,0.8,0.8,0.8,1.8c0,0.5-0.3,1-0.8,1.5C8.4,7.8,8.1,8.5,8.1,9.3z"/>
	<path class="st0" d="M13.1,6.3c0,1.4,1,2.5,1.1,2.5C14.2,9,14.4,9,14.5,9c0.1,0,0.3,0,0.4-0.1c0.2-0.2,0.2-0.5,0-0.7
		c0,0-0.8-0.8-0.8-1.8c0-0.5,0.3-1,0.8-1.5c0.7-0.6,1.1-1.4,1.1-2.2c0-1.4-1-2.5-1.1-2.5c-0.2-0.2-0.5-0.2-0.7,0
		c-0.2,0.2-0.2,0.5,0,0.7c0,0,0.8,0.8,0.8,1.8c0,0.5-0.3,1-0.8,1.5C13.4,4.8,13.1,5.5,13.1,6.3z"/>
	<path class="st0" d="M17.1,11.8c0.1,0.1,0.2,0.2,0.4,0.2c0.1,0,0.2,0,0.3-0.1c0.7-0.6,1.1-1.4,1.1-2.2c0-1.4-1-2.5-1.1-2.5
		c-0.2-0.2-0.5-0.2-0.7,0c-0.2,0.2-0.2,0.5,0,0.7c0,0,0.8,0.8,0.8,1.8c0,0.5-0.3,1-0.8,1.5C17,11.3,16.9,11.6,17.1,11.8z"/>
</g>
</symbol><symbol id="fastfood" viewBox="0 0 35 35">
<style type="text/css">
	.st0{fill:#547682;}
</style>
<g>
	<path class="st0" d="M34.9,7.2C34.6,6.9,28.7,0,17.5,0C6.3,0,0.4,6.9,0.1,7.2C0,7.3,0,7.6,0.1,7.8l17,27c0.1,0.1,0.3,0.2,0.4,0.2
		s0.3-0.1,0.4-0.2l17-27C35,7.6,35,7.3,34.9,7.2z M17.5,33.6L3.3,11c1.2-1.2,2.9-2.6,5.1-3.7C8.1,7.8,8,8.4,8,9c0,2.2,1.8,4,4,4
		s4-1.8,4-4c0-1.6-1-3-2.3-3.6C14.9,5.1,16.1,5,17.5,5c6.8,0,11.7,3.6,14.2,6L30,13.7c0,0-0.1-0.1-0.1-0.2C28.8,12,27,11,25,11
		c-3.3,0-6,2.7-6,6c0,3,2.3,5.5,5.2,5.9L17.5,33.6z M12,6c1.7,0,3,1.3,3,3s-1.3,3-3,3s-3-1.3-3-3S10.3,6,12,6z M24.8,22
		c-2.7-0.1-4.8-2.3-4.8-5c0-2.8,2.2-5,5-5c1.6,0,3.2,0.8,4.1,2.1c0.1,0.2,0.2,0.3,0.3,0.5L24.8,22z M32.2,10.2
		C29.6,7.6,24.5,4,17.5,4c-7,0-12.1,3.6-14.7,6.2L1.1,7.6C2.3,6.3,8,1,17.5,1C27,1,32.7,6.3,33.9,7.6L32.2,10.2z"/>
	<path class="st0" d="M16.5,24c-1.4,0-2.5,1.1-2.5,2.5s1.1,2.5,2.5,2.5s2.5-1.1,2.5-2.5S17.9,24,16.5,24z M16.5,28
		c-0.8,0-1.5-0.7-1.5-1.5s0.7-1.5,1.5-1.5s1.5,0.7,1.5,1.5S17.3,28,16.5,28z"/>
</g>
</symbol><symbol id="futbolka" viewBox="0 0 36 33">
<style type="text/css">
	.st0{fill:#547682;}
</style>
<path class="st0" d="M25,0c-2.4,1.7-4.8,2.2-6.9,2.2C14,2.2,11,0,11,0L0,8l4,6l4-2v14v1v6h20v-6v-1V12l4,2l4-6C36,8,27.7,2.2,25,0z
	 M27,32H9v-5h18V32z M31.7,12.7l-3.2-1.6C28.3,11,28.2,11,28,11c-0.2,0-0.4,0.1-0.5,0.1C27.2,11.3,27,11.7,27,12v14H9V12
	c0-0.3-0.2-0.7-0.5-0.9C8.4,11.1,8.2,11,8,11c-0.2,0-0.3,0-0.4,0.1l-3.2,1.6l-3-4.5l9.7-7c1.1,0.7,3.8,2,7.1,2c2.4,0,4.7-0.7,6.8-2
	c2.5,2,7.7,5.6,9.7,7L31.7,12.7z"/>
</symbol><symbol id="kassa" viewBox="0 0 32.237 39.877">
<g>
	
	<clipPath id="SVGID_2_">
		<use xlink:href="#SVGID_1_" overflow="visible"/>
	</clipPath>
	<path clip-path="url(#SVGID_2_)" fill="#CCCCCC" d="M21.752,38.188L4.241,39.87c-1.096,0.097-1.85-0.741-1.946-1.837L0,16.001
		C0,12,4.552,4.744,5.647,4.648L9.38,4.286l12.905,0.88c1.095-0.096,2.069,0.722,2.166,1.818l2.187,24.99l5.373,1.537
		C32.105,34.607,25.245,37.938,21.752,38.188"/>
	<path clip-path="url(#SVGID_2_)" fill="#5D5D5D" d="M28.336,35.752l-20.92,1.83c-1.096,0.096-2.071-0.723-2.167-1.818L2.722,8.876
		C2.626,7.781,5.779,3.354,6.94,3l18.433-1.119c1.095-0.095,2.069,0.723,2.166,1.818l4.366,29.676
		C32.002,34.471,29.432,35.657,28.336,35.752"/>
	<path clip-path="url(#SVGID_2_)" fill="#E8E8E8" d="M30.411,34.567l-20.92,1.83c-1.096,0.096-2.071-0.723-2.167-1.818L5.843,17.645
		l1.158-6.124l-0.61-6.975C6.295,3.45,7.113,2.475,8.209,2.379l20.92-1.83c1.096-0.096,2.071,0.722,2.167,1.818l0.61,6.975
		l-1.158,6.124L32.229,32.4C32.325,33.496,31.507,34.471,30.411,34.567"/>
	<polygon clip-path="url(#SVGID_2_)" fill="#C6C6C6" points="30.748,15.465 5.843,17.645 7.001,11.521 31.906,9.341 	"/>
	<polygon clip-path="url(#SVGID_2_)" fill="#1C9FAC" points="28.956,13.991 8.317,15.798 8.792,12.996 29.464,11.186 	"/>
	<line clip-path="url(#SVGID_2_)" fill="#FFFFFF" x1="18.334" y1="7.141" x2="29.494" y2="6.164"/>
	<path clip-path="url(#SVGID_2_)" fill="#1B1919" d="M18.334,8.141c-0.513,0-0.949-0.392-0.995-0.913
		c-0.048-0.55,0.358-1.035,0.909-1.083l11.16-0.977c0.549-0.053,1.035,0.359,1.083,0.909c0.048,0.55-0.358,1.035-0.909,1.083
		l-11.16,0.977C18.393,8.14,18.363,8.141,18.334,8.141"/>
	<polygon clip-path="url(#SVGID_2_)" fill="#9E9E9E" points="27.944,5.296 18.23,6.146 17.74,0.543 18.108,1.514 18.77,0.453 
		20.163,1.334 21.509,0.213 22.451,1.134 23.937,0 25.171,0.896 26.089,0.034 26.95,0.74 27.302,0.034 	"/>
	<polygon clip-path="url(#SVGID_2_)" fill="#FFFFFF" points="29.028,6.205 18.848,7.096 18.358,1.493 19.192,2.423 19.853,1.362 
		21.247,2.243 22.592,1.122 23.535,2.043 25.02,0.909 26.254,1.805 27.172,1.049 28.034,1.649 28.385,0.943 	"/>
	<line clip-path="url(#SVGID_2_)" fill="#9E9E9E" x1="10.862" y1="21.221" x2="12.854" y2="21.047"/>
	<path clip-path="url(#SVGID_2_)" fill="#B5B5B5" d="M10.861,22.221c-0.513,0-0.95-0.393-0.995-0.913
		c-0.048-0.55,0.359-1.035,0.909-1.083l1.993-0.174c0.565-0.052,1.035,0.359,1.083,0.909c0.048,0.55-0.359,1.035-0.909,1.083
		l-1.993,0.174C10.919,22.22,10.89,22.221,10.861,22.221"/>
	<line clip-path="url(#SVGID_2_)" fill="#9E9E9E" x1="17.835" y1="20.611" x2="19.827" y2="20.437"/>
	<path clip-path="url(#SVGID_2_)" fill="#B5B5B5" d="M17.834,21.611c-0.513,0-0.949-0.393-0.995-0.913
		c-0.048-0.55,0.358-1.035,0.909-1.083l1.993-0.174c0.55-0.053,1.035,0.358,1.083,0.909c0.048,0.55-0.358,1.034-0.909,1.083
		l-1.993,0.174C17.893,21.61,17.863,21.611,17.834,21.611"/>
	<line clip-path="url(#SVGID_2_)" fill="#9E9E9E" x1="24.809" y1="20" x2="26.801" y2="19.827"/>
	<path clip-path="url(#SVGID_2_)" fill="#B5B5B5" d="M24.808,21c-0.513,0-0.949-0.392-0.995-0.913
		c-0.048-0.55,0.358-1.035,0.909-1.083l1.992-0.174c0.542-0.048,1.035,0.358,1.083,0.908c0.048,0.551-0.358,1.037-0.909,1.084
		l-1.992,0.174C24.866,21,24.837,21,24.808,21"/>
	<line clip-path="url(#SVGID_2_)" fill="#9E9E9E" x1="11.298" y1="26.203" x2="13.29" y2="26.029"/>
	<path clip-path="url(#SVGID_2_)" fill="#B5B5B5" d="M11.297,27.203c-0.513,0-0.95-0.393-0.995-0.913
		c-0.048-0.55,0.358-1.035,0.909-1.083l1.992-0.175c0.55-0.056,1.036,0.358,1.084,0.909c0.048,0.55-0.359,1.035-0.909,1.083
		l-1.993,0.175C11.356,27.202,11.326,27.203,11.297,27.203"/>
	<line clip-path="url(#SVGID_2_)" fill="#9E9E9E" x1="18.271" y1="25.592" x2="20.264" y2="25.418"/>
	<path clip-path="url(#SVGID_2_)" fill="#B5B5B5" d="M18.271,26.592c-0.513,0-0.949-0.393-0.995-0.912
		c-0.049-0.551,0.358-1.036,0.908-1.084l1.992-0.175c0.567-0.048,1.036,0.359,1.084,0.908c0.049,0.551-0.358,1.036-0.908,1.084
		l-1.992,0.175C18.329,26.591,18.3,26.592,18.271,26.592"/>
	<line clip-path="url(#SVGID_2_)" fill="#9E9E9E" x1="25.245" y1="24.982" x2="27.236" y2="24.807"/>
	<path clip-path="url(#SVGID_2_)" fill="#B5B5B5" d="M25.244,25.982c-0.513,0-0.949-0.393-0.995-0.912
		c-0.049-0.551,0.358-1.036,0.908-1.084l1.992-0.175c0.567-0.052,1.036,0.358,1.084,0.908c0.049,0.551-0.358,1.036-0.908,1.084
		l-1.992,0.175C25.303,25.981,25.273,25.982,25.244,25.982"/>
	<line clip-path="url(#SVGID_2_)" fill="#9E9E9E" x1="11.734" y1="31.183" x2="13.726" y2="31.009"/>
	<path clip-path="url(#SVGID_2_)" fill="#919191" d="M11.733,32.183c-0.513,0-0.95-0.393-0.995-0.913
		c-0.048-0.55,0.359-1.035,0.909-1.083l1.993-0.174c0.565-0.056,1.035,0.359,1.083,0.909s-0.358,1.035-0.909,1.083l-1.993,0.174
		C11.791,32.182,11.762,32.183,11.733,32.183"/>
	<line clip-path="url(#SVGID_2_)" fill="#9E9E9E" x1="18.707" y1="30.573" x2="20.699" y2="30.399"/>
	<path clip-path="url(#SVGID_2_)" fill="#B5B5B5" d="M18.706,31.573c-0.513,0-0.95-0.393-0.995-0.913
		c-0.048-0.55,0.359-1.035,0.909-1.083l1.993-0.174c0.545-0.052,1.035,0.359,1.083,0.909s-0.359,1.035-0.909,1.083l-1.993,0.174
		C18.765,31.572,18.735,31.573,18.706,31.573"/>
	<line clip-path="url(#SVGID_2_)" fill="#9E9E9E" x1="25.681" y1="29.962" x2="27.673" y2="29.789"/>
	<path clip-path="url(#SVGID_2_)" fill="#DDA947" d="M25.68,30.962c-0.513,0-0.95-0.393-0.995-0.913
		c-0.048-0.55,0.359-1.035,0.909-1.083l1.992-0.174c0.546-0.047,1.036,0.359,1.083,0.909c0.048,0.55-0.359,1.035-0.909,1.083
		l-1.992,0.174C25.738,30.961,25.709,30.962,25.68,30.962"/>
</g>
</symbol><symbol id="market" viewBox="0 0 33 30">
<style type="text/css">
	.st0{fill:#181818;}
</style>
<path class="st0" d="M32.5,29h-4V13c4,0,4-4.4,4-6c0-2.1-2.7-5.9-3.2-6.6C29.1,0.2,28.8,0,28.5,0h-23h-1h0h0C4.3,0,4,0.1,3.9,0.2
	C1.4,2.1,0.5,6.6,0.5,6.8c0,0.1,0,0.1,0,0.2c0,2.2,0.9,6,4,6v16h-4C0.2,29,0,29.2,0,29.5S0.2,30,0.5,30h4h24h4
	c0.3,0,0.5-0.2,0.5-0.5S32.8,29,32.5,29z M1.5,7c0,0,0.8-4.4,3-6h0c0.1,0,1,0,1,0h23c0,0,3,4.1,3,6s-0.1,5-3,5s-3-5-3-5s0,5-3,5
	c0,0,0,0,0,0c0,0-3,0-3-5c0,0.4-0.1,5-3,5c-3,0-3-4.8-3-5c0,0.2-0.1,5-3,5c-3,0-3-5-3-5s0,5-3,5S1.5,7,1.5,7z M9.5,12.9
	c0.3,0.1,0.6,0.1,1,0.1c1.4,0,2.4-0.8,3-1.8c0.2,0.3,0.4,0.6,0.6,0.9c0.6,0.6,1.5,1,2.4,1c1.4,0,2.4-0.7,3-1.8
	c1.2,1.8,2.9,1.8,3,1.8c0,0,0,0,0.1,0c0.3,0,0.7,0,1-0.1V25h-14V12.9z M5.5,29V12.9c0.9-0.3,1.5-0.9,2-1.7c0.3,0.5,0.6,0.9,1,1.2V26
	h16V12.3c0.4-0.3,0.7-0.7,1-1.2c0.5,0.8,1.1,1.4,2,1.7V29H5.5z"/>
</symbol><symbol id="store" viewBox="0 0 40 26.3">
<style type="text/css">
	.st0{fill:#D2BE5B;}
</style>
<g>
	<path class="st0" d="M39.8,9.4l-4-6C35.6,3.2,35.3,3,35,3h-3V1V0h-1H9H8v1v2H5C4.7,3,4.4,3.2,4.2,3.4l-4,6C0.1,9.6,0,9.8,0,10
		c0,1.8,1,3,2.5,3c0.5,0,1-0.1,1.4-0.4V25c0,0.7,0.6,1.3,1.3,1.3h29.6c0.7,0,1.3-0.6,1.3-1.3V12.6c0.4,0.2,0.9,0.4,1.4,0.4
		c1.2,0,2.5-0.8,2.5-3C40,9.8,39.9,9.6,39.8,9.4z M9,1h22v2H9V1z M17,25v-6c0,0,0-3,3-3c2.9,0,3,3,3,3v6H17z M34.8,25.3H24V25v-6
		c0-1.6-1.1-4-4-4c-1.2,0-2.1,0.4-2.8,1.1C16,17.2,16,18.8,16,19v6v0.3H5.3C5.1,25.3,5,25.2,5,25V12.6C5.4,12.8,5.9,13,6.4,13
		c0.7,0,1.4-0.3,1.9-0.7c0.5,0.5,1.2,0.7,1.9,0.7c0.7,0,1.4-0.3,1.9-0.7c0.5,0.5,1.2,0.7,1.9,0.7s1.4-0.3,1.9-0.7
		c0.5,0.5,1.2,0.7,1.9,0.7c0.7,0,1.4-0.3,1.9-0.7c0.5,0.5,1.2,0.7,1.9,0.7s1.4-0.3,1.9-0.7c0.5,0.5,1.2,0.7,1.9,0.7
		c0.7,0,1.4-0.3,1.9-0.7c0.5,0.5,1.2,0.7,1.9,0.7c0.7,0,1.4-0.3,1.9-0.7c0.5,0.5,1.2,0.7,1.9,0.7c0.5,0,1-0.1,1.4-0.4V25
		C35.1,25.2,35,25.3,34.8,25.3z M37.5,12c-1.1,0-1.9-0.9-1.9-1.9c0,1.1-0.9,1.9-1.9,1.9s-1.9-0.9-1.9-1.9c0,1.1-0.9,1.9-1.9,1.9
		c-1.1,0-1.9-0.9-1.9-1.9c0,1.1-0.9,1.9-1.9,1.9c-1.1,0-1.9-0.9-1.9-1.9c0,1.1-0.9,1.9-1.9,1.9S20,11.1,20,10c0,1.1-0.9,1.9-1.9,1.9
		c-1.1,0-1.9-0.9-1.9-1.9c0,1.1-0.9,1.9-1.9,1.9s-1.9-0.9-1.9-1.9c0,1.1-0.9,1.9-1.9,1.9c-1.1,0-1.9-0.9-1.9-1.9
		c0,1.1-0.9,1.9-1.9,1.9S4.5,11.1,4.5,10c0,1.1-0.9,1.9-1.9,1.9C1.5,12,1,11.1,1,10l4-6h3h1h22h1h3l4,6C39,11.1,38.6,12,37.5,12z"/>
	<path class="st0" d="M8,22h4v-6H8V22z M9,17h2v4H9V17z"/>
	<path class="st0" d="M28,22h4v-6h-4V22z M29,17h2v4h-2V17z"/>
	<circle class="st0" cx="21" cy="21" r="1"/>
</g>
</symbol></svg>