<?xml version="1.0" encoding="UTF-8"?><!DOCTYPE svg PUBLIC "-//W3C//DTD SVG 1.1//EN" "http://www.w3.org/Graphics/SVG/1.1/DTD/svg11.dtd"><svg xmlns="http://www.w3.org/2000/svg" xmlns:xlink="http://www.w3.org/1999/xlink"><symbol id="apple" viewBox="0 0 30 34.8">
<style type="text/css">
	.st0{fill:#181818;}
</style>
<g>
	<path class="st0" d="M22,8.5c0,0-4.5,0.1-5.9,2.5c-0.1,0.1-0.4,0.3-1.1,0.3c-0.2,0-0.4,0-0.6-0.1c-0.1-1.1-0.6-6.7-3.2-8.2
		C11,2.9,10.7,3,10.6,3.2c-0.1,0.2-0.1,0.5,0.2,0.7c1.6,1,2.4,4.3,2.6,6.5C11.8,8.7,8.5,8.5,8,8.5c0,0,0,0,0,0c-7.1,0-8,5.3-8,11
		c0,9.5,3.1,15.3,8,15.3c0.7,0,1.5-0.1,2.3-0.4l0,0l0,0c0,0,1.8-0.7,4.5-0.7c1.6,0,3.2,0.3,4.8,0.8c0.7,0.2,1.4,0.3,2.1,0.3
		c5.7,0,8.2-7.7,8.2-15.3C30,13.8,29,8.5,22,8.5z M21.8,33.8c-0.6,0-1.2-0.1-1.8-0.3c-1.9-0.6-3.6-0.8-5.1-0.8c-3,0-4.9,0.8-4.9,0.8
		c-0.7,0.2-1.3,0.3-2,0.3c-4.7,0-7-6.4-7-14.3c0-5.9,1-10,7-10c0,0,3.9,0.2,5,2c0.3,0.5,1.2,0.8,2,0.8c0.8,0,1.7-0.3,2-0.8
		c1-1.9,4.9-2,5-2c6.1,0,7,4.2,7,10C29,26.7,26.6,33.8,21.8,33.8z"/>
	<path class="st0" d="M16,7.9C16.2,7.9,16.4,8,16.6,8c1.3,0,2.4-1.6,3.1-3.1c0.8-1.8,1.1-4.1-0.3-4.7C19.1,0,18.9,0,18.7,0h0
		c-1.3,0-2.4,1.6-3.1,3.1C14.9,4.9,14.5,7.2,16,7.9z M16.6,3.5C17.2,2.1,18.1,1,18.7,1c0.1,0,0.1,0,0.2,0c0.6,0.3,0.5,1.8-0.2,3.4
		C18.1,5.9,17.2,7,16.6,7c-0.1,0-0.1,0-0.2,0C15.8,6.7,15.9,5.2,16.6,3.5z"/>
	<path class="st0" d="M8.2,28c0,0-2.7-1.2-2.7-7.5c0-3.6,0.9-4.8,1.4-5.2c0.5-0.4,0.9-0.3,1-0.3c0.3,0.1,0.5-0.1,0.6-0.4
		c0.1-0.3-0.1-0.5-0.3-0.6c-0.1,0-0.9-0.2-1.8,0.4c-1.2,0.9-1.8,2.9-1.8,6c-0.1,7.1,3.2,8.4,3.3,8.5c0.1,0,0.1,0,0.2,0
		c0.2,0,0.4-0.1,0.5-0.3C8.6,28.4,8.4,28.1,8.2,28z"/>
</g>
</symbol><symbol id="apteka" viewBox="0 0 25 25">
<style type="text/css">
	.st0{fill:#181818;}
</style>
<path class="st0" d="M17,25H8v-8H0V8h8V0h9v8h8v9h-8V25z M9,24h7v-8h8V9h-8V1H9v8H1v7h8V24z"/>
</symbol><symbol id="bottle" viewBox="0 0 24.3 39.7">
<style type="text/css">
	.st0{fill:#E9C5BA;}
	.st1{fill:#CBCBCB;}
	.st2{fill:#4C384B;}
	.st3{fill:#876C7C;}
	.st4{fill:#E0E0E0;}
	.st5{fill:#BCBCBC;}
</style>
<rect x="1" y="0.4" transform="matrix(0.9082 -0.4185 0.4185 0.9082 -0.7949 1.264)" class="st0" width="3" height="4"/>
<path class="st1" d="M10.1,15.4c-2.3-0.1-3.1-1.9-3.1-1.9l-1.3-2.7L0.6,4.1L0,10.2l1.3,2.7l1.3,2.7c0,0,0.9,1.8-0.6,3.6
	c-1.3,1.6-0.6,3.6-0.6,3.6l5.9,12.7l5.2,4.2l0.7-22.3C13.2,17.3,12.3,15.5,10.1,15.4z"/>
<path class="st2" d="M12.8,14.2c-2.3-0.1-3.1-1.9-3.1-1.9L8.5,9.6L5.2,2.3L0.6,4.4L4,11.7l1.3,2.7c0,0,0.9,1.8-0.6,3.6
	c-1.3,1.6-0.6,3.6-0.6,3.6l8.4,18.2l11.8-5.4l-8.4-18.2C15.9,16.1,15,14.3,12.8,14.2z"/>
<path class="st3" d="M12.4,15.5c-2.3-0.1-3.1-1.9-3.1-1.9L8,10.9L4.3,2.7L3.4,3.1l3.8,8.2L8.4,14c0,0,0.2,0.3,1,2.2
	c0.6,1.4,1.9,1.5,2.6,1.6c0.9,0.2,2,1.2,2.4,2.1l7.1,15.5l1.8-0.8l-8-17.3C15.4,17.4,14.5,15.6,12.4,15.5z"/>
<path class="st2" d="M0.6,4.9c-0.2,0-0.4-0.1-0.5-0.3c-0.1-0.3,0-0.5,0.2-0.7L5,1.9c0.3-0.1,0.5,0,0.7,0.2c0.1,0.3,0,0.5-0.2,0.7
	L0.8,4.9C0.8,4.9,0.7,4.9,0.6,4.9z"/>
<rect x="7.9" y="23.1" transform="matrix(0.9082 -0.4185 0.4185 0.9082 -9.6788 7.9857)" class="st4" width="11" height="6"/>
<g>
	<rect x="9.9" y="25.1" transform="matrix(0.9082 -0.4185 0.4185 0.9082 -9.6788 7.9857)" class="st4" width="7" height="2"/>
	<path class="st5" d="M16.1,23.7l0.8,1.8l-6.4,2.9l-0.8-1.8L16.1,23.7 M16.6,22.4l-0.9,0.4l-6.4,2.9l-0.9,0.4L8.9,27l0.8,1.8
		l0.4,0.9l0.9-0.4l6.4-2.9l0.9-0.4l-0.4-0.9L17,23.3L16.6,22.4L16.6,22.4z"/>
</g>
</symbol><symbol id="call" viewBox="0 0 65.7 69.7">
<style type="text/css">
	.st0{fill:#E6C3B8;}
	.st1{fill:#7E4241;}
	.st2{fill:#CC504B;}
	.st3{fill:#2A1F2F;}
	.st4{fill:#201600;}
	.st5{fill:#C5625A;}
	.st6{fill:#41384D;}
	.st7{display:none;fill:#FFFFFF;}
	.st8{fill:#FFFFFF;}
	.st9{display:none;fill:#252525;}
	.st10{fill:#262626;}
</style>
<path class="st0" d="M64.8,49.2c0-0.5-0.3-2.7-0.8-2.7c-0.7,0-0.5,1.9-0.9,1.9s0.3-3.1-0.8-3.1c-0.8,0-0.7,3.1-1,3.1
	c-0.4,0,0.2-3.1-0.6-3.1c-0.7,0-0.9,1.9-0.9,2.1c0,0.9-0.1,1.7-0.1,2.5l-0.1-0.2c-0.1-0.1-0.2-0.4-0.2-0.5c-0.2-0.5-0.9-1.4-1.4-1.2
	c-0.5,0.1-0.5,0.6-0.3,1.3l1.8,4.3c-0.6,5.6-1.3,8.2-1.9,9.7c-0.8,0.9-2.4,0.9-3.4,0.7l-28.6-9.2c-1.3-0.4-2.7,0.3-3.1,1.6
	c-0.4,1.3,0.3,2.7,1.6,3.1l29.4,9.5c0.9,0.4,1.9,0.6,3.1,0.6c1.9,0,3.9-0.8,5.1-3c1.2-2.5,2.5-3.7,3.2-13c0-0.6,0.1-1.2,0.1-1.8
	c0-0.7,0.1-1.4,0.1-2.2C64.8,49.5,64.8,49.2,64.8,49.2z"/>
<path class="st1" d="M41,59.9c-2.7-0.9-5.6-1.9-8.3-2.8c-1.3-0.4-2.7,0.2-3.2,1.6c-0.4,1.3,0.2,2.7,1.6,3.2c2.4,0.8,5.3,1.8,8.2,2.8
	"/>
<path class="st2" d="M10.3,48.1c0,0,8,13.5,31.1,6.8c0,0-3.2,7.5-18.1,14.6C9.5,59,10.3,48.1,10.3,48.1z"/>
<path class="st3" d="M50.3,15.4c-3.7,4.9-6.3,6.6-18.3,7.8c-0.6,0.1-1.3,0.2-1.9,0.3c2.5-6.5,8-22.8-0.1-23.3
	c-14.1-0.8-13.4,8-13.4,8l1.1,13.7c-6.1-2.1-10.3-5.7-10.4-7.2C3.9,9.4-0.2,14.3,0,16.1c1.1,12.6,11.2,17.8,11.2,17.8
	c3.8-6.1,8-8.8,14.3-9.1l3.6,1.3c0,0,0.2-0.4,0.5-1.1C43.2,26.2,44.4,35,44.4,35C57.1,25.8,50.3,15.4,50.3,15.4z"/>
<circle class="st0" cx="27.8" cy="42.4" r="19.2"/>
<ellipse class="st4" cx="24.5" cy="35" rx="1.2" ry="2.3"/>
<ellipse class="st4" cx="41.5" cy="36" rx="1.2" ry="2.3"/>
<ellipse class="st5" cx="32.9" cy="40.1" rx="2.7" ry="1.8"/>
<path class="st6" d="M7.4,14.8c0,0,5.3,17.3,20.8,15.8c16.2-1.5,20.6-9.3,22.8-13.8c-0.3-3.8-5.5-4.7-6.3-2.2
	c-1.5,4.9-6.3,6.3-6.3,6.3l-0.5-10.7c0,0,0.4-11.4-10-10.2c-7.1,0.9-6.8,7.5-6.8,7.5l1.2,14.7C22.2,22.3,11.7,18.8,7.4,14.8z"/>
<ellipse class="st3" cx="29.3" cy="50.8" rx="11" ry="6.8"/>
<g>
	<path class="st7" d="M37.4,51.9l0-0.3c-0.9-0.2-1.9-0.4-3-0.4v0.7L37.4,51.9z"/>
	<path class="st8" d="M27.3,47.2c1.4,0,1.4-1.1,1.4-1.1l0-2.2c-1,0-2,0.1-3,0.3v1.9C25.8,46.2,26,47.2,27.3,47.2z"/>
</g>
<g>
	<path class="st9" d="M32.9,44.4l0,1.9c0,0-0.1,1.1-1.4,1.1S30,46.3,30,46.3v-2.2c-0.2,0-0.4,0-0.6,0c-6.1,0-11,3-11,6.8
		s4.9,6.8,11,6.8s11-3,11-6.8C40.3,47.9,37.2,45.3,32.9,44.4z"/>
	<path class="st7" d="M32.9,43.1c-1,0-2,0.1-3,0.3v0.6c1,0,2,0.2,3,0.4L32.9,43.1z"/>
	<path class="st8" d="M31.5,47.3c1.4,0,1.4-1.1,1.4-1.1l0-1.9C32,44.1,31,44,30,44v2.2C30,46.2,30.1,47.3,31.5,47.3z"/>
</g>
<path class="st10" d="M62.9,49.2c0,0-3.6,11.6-8.7,11.7c-5.1,0.1-5.3-3.5-5.3-3.5l3-6.6c0,0,0.5-1.1,1.5-1c1,0.2,2.8,0.5,2.8,0.5
	s2.9-4.6,2.8-8.4l-2.6-1.3c0,0-0.9-0.4-0.7-1.6c0.2-1,1.1-4.9,1.3-5.9c0.1-0.3,0.2-0.5,0.3-0.7c0.5-0.8,2.1-2.2,5.8-0.2
	C69,34,62.9,49.2,62.9,49.2z"/>
<path class="st0" d="M61.2,58.2l-2.8-7.3c-0.2-0.7-0.1-1.2,0.3-1.3c0.5-0.1,1.2,0.7,1.4,1.2l2.3,4.4"/>
<path class="st0" d="M62,53.9l-2.8-7.3c-0.2-0.7-0.1-1.2,0.3-1.3c0.5-0.1,1.2,0.7,1.4,1.2l2.3,4.4"/>
<path class="st0" d="M63.3,50.4l-2.8-6.9c-0.2-0.7-0.1-1.2,0.3-1.3c0.5-0.1,1.2,0.7,1.4,1.2l1.9,3.1"/>
</symbol><symbol id="cart" viewBox="0 0 30.5 40">
<style type="text/css">
	.st0{fill:#CCCCCC;}
	.st1{fill:#DB4531;}
	.st2{fill:#700900;}
	.st3{fill:#911707;}
	.st4{fill:none;stroke:#E57565;stroke-linecap:round;stroke-miterlimit:10;}
	.st5{fill:#1B1919;}
	.st6{fill:#424242;}
	.st7{fill:#E57565;}
	.st8{fill:url(#SVGID_1_);}
	.st9{fill:url(#SVGID_2_);}
	.st10{fill:url(#SVGID_3_);}
	.st11{fill:url(#SVGID_4_);}
	.st12{fill:url(#SVGID_5_);}
	.st13{fill:url(#SVGID_6_);}
	.st14{fill:url(#SVGID_7_);}
	.st15{fill:url(#SVGID_8_);}
	.st16{fill:#D3D3D3;}
</style>
<path class="st0" d="M23.7,38.2L4.8,40c-1.1,0.1-2.1-0.7-2.2-1.8L0,10.3c-0.1-1.1,0.7-2.1,1.8-2.2l6.5-2.6l14.4-1.3
	c1.1-0.1,2.1,0.7,2.2,1.8l2.2,25L25.5,36C25.6,37.1,24.8,38.1,23.7,38.2z"/>
<path class="st1" d="M28.7,33.9L7.8,35.7c-1.1,0.1-2.1-0.7-2.2-1.8L3,4C2.9,2.9,3.7,1.9,4.8,1.8L25.7,0c1.1-0.1,2.1,0.7,2.2,1.8
	l2.6,29.9C30.6,32.8,29.8,33.8,28.7,33.9z"/>
<path class="st2" d="M26.5,32L9.6,33.5c-1.1,0.1-2.1-0.7-2.2-1.8L5.2,5.8C5.1,4.7,5.9,3.7,7,3.6l16.9-1.5C25,2,26,2.9,26.1,4
	l2.3,25.9C28.5,31,27.6,31.9,26.5,32z"/>
<path class="st3" d="M22.7,30.9l-12,1c-1.1,0.1-2.1-0.7-2.2-1.8L6.8,9.2C6.7,8.1,7.5,7.2,8.6,7.1l12-1c1.1-0.1,2.1,0.7,2.2,1.8
	l1.8,20.9C24.6,29.9,23.8,30.8,22.7,30.9z"/>
<path class="st4" d="M24.7,8.1"/>
<path class="st4" d="M25.5,7.9"/>
<path class="st5" d="M4.2,20c-0.5,0-0.9-0.4-1-0.9L1.6,8.4c0-0.3,0-0.5,0.2-0.8C2,7.4,2.2,7.3,2.5,7.2l0.8-0.1
	c0.3,0,0.5,0.1,0.8,0.2c0.2,0.2,0.3,0.4,0.4,0.7l0.8,10.9c0,0.5-0.4,1-0.9,1.1C4.2,20,4.2,20,4.2,20z"/>
<path class="st5" d="M29.3,17.5c-0.5,0-1-0.4-1-0.9L27.5,5.8c0-0.5,0.3-1,0.8-1.1l1-0.2c0.3,0,0.6,0,0.8,0.2
	c0.2,0.2,0.4,0.5,0.3,0.8l-0.2,11C30.3,17,29.9,17.5,29.3,17.5C29.4,17.5,29.3,17.5,29.3,17.5z"/>
<path class="st5" d="M3.5,10.2c-1,0-1.9-0.8-2-1.8C1.4,7.3,2.2,6.3,3.3,6.2l25-2.7c1.1-0.1,2.1,0.7,2.2,1.8c0.1,1.1-0.7,2.1-1.8,2.2
	l-25,2.7C3.7,10.2,3.6,10.2,3.5,10.2z"/>
<path class="st6" d="M28.3,3.3L12,5.1l-8.9,1c-0.9,0.2-1.6,1-1.6,2c0,0.1,0.1,0.2,0.2,0.2l15.4-1.2l13.1-2c0.1,0,0.2-0.1,0.2-0.2
	C30.2,3.9,29.3,3.2,28.3,3.3z"/>
<path class="st7" d="M26.7,27.6C26.6,27.6,26.6,27.6,26.7,27.6l-0.9-0.1c-0.3,0-0.5-0.3-0.5-0.5s0.3-0.5,0.5-0.5l0.8,0.1
	c0.3,0,0.5,0.3,0.5,0.5C27.1,27.4,26.9,27.6,26.7,27.6z"/>
<path class="st7" d="M25.2,21c-0.3,0-0.5-0.2-0.5-0.5c0-0.3,0.2-0.5,0.5-0.5L26,20c0.3,0,0.5,0.2,0.5,0.5c0,0.3-0.2,0.5-0.5,0.5
	L25.2,21C25.3,21,25.2,21,25.2,21z"/>
<path class="st7" d="M24.7,14c-0.2,0-0.4-0.2-0.5-0.4c0-0.3,0.1-0.5,0.4-0.6l0.8-0.1c0.3-0.1,0.5,0.1,0.6,0.4s-0.1,0.5-0.4,0.6
	L24.7,14C24.8,14,24.7,14,24.7,14z"/>
<path class="st4" d="M24.2,7.4"/>
<path class="st4" d="M25.1,7.2"/>
<g>
	<linearGradient id="SVGID_1_" gradientUnits="userSpaceOnUse" x1="16.495" y1="11.1828" x2="21.495" y2="11.1828">
		<stop offset="0" style="stop-color:#911707"/>
		<stop offset="0.1683" style="stop-color:#9C1A08"/>
		<stop offset="0.4683" style="stop-color:#BB220C"/>
		<stop offset="0.8625" style="stop-color:#EC3013"/>
		<stop offset="1" style="stop-color:#FF3515"/>
	</linearGradient>
	<line class="st8" x1="21.5" y1="9.3" x2="16.5" y2="13.1"/>
	<linearGradient id="SVGID_2_" gradientUnits="userSpaceOnUse" x1="15.9949" y1="11.1828" x2="21.9947" y2="11.1828">
		<stop offset="0" style="stop-color:#940000"/>
		<stop offset="1" style="stop-color:#BF3000"/>
	</linearGradient>
	<path class="st9" d="M16.5,13.6c-0.1,0-0.3-0.1-0.4-0.2c-0.2-0.2-0.1-0.5,0.1-0.7l5-3.8c0.2-0.2,0.5-0.1,0.7,0.1
		c0.2,0.2,0.1,0.5-0.1,0.7l-5,3.8C16.7,13.6,16.6,13.6,16.5,13.6z"/>
</g>
<g>
	<linearGradient id="SVGID_3_" gradientUnits="userSpaceOnUse" x1="16.495" y1="18.1828" x2="21.495" y2="18.1828">
		<stop offset="0" style="stop-color:#911707"/>
		<stop offset="0.1683" style="stop-color:#9C1A08"/>
		<stop offset="0.4683" style="stop-color:#BB220C"/>
		<stop offset="0.8625" style="stop-color:#EC3013"/>
		<stop offset="1" style="stop-color:#FF3515"/>
	</linearGradient>
	<line class="st10" x1="21.5" y1="16.3" x2="16.5" y2="20.1"/>
	<linearGradient id="SVGID_4_" gradientUnits="userSpaceOnUse" x1="15.9949" y1="18.1828" x2="21.9947" y2="18.1828">
		<stop offset="0" style="stop-color:#940000"/>
		<stop offset="1" style="stop-color:#BF3000"/>
	</linearGradient>
	<path class="st11" d="M16.5,20.6c-0.1,0-0.3-0.1-0.4-0.2c-0.2-0.2-0.1-0.5,0.1-0.7l5-3.8c0.2-0.2,0.5-0.1,0.7,0.1
		c0.2,0.2,0.1,0.5-0.1,0.7l-5,3.8C16.7,20.6,16.6,20.6,16.5,20.6z"/>
</g>
<g>
	<linearGradient id="SVGID_5_" gradientUnits="userSpaceOnUse" x1="16.495" y1="25.1828" x2="21.495" y2="25.1828">
		<stop offset="0" style="stop-color:#911707"/>
		<stop offset="9.149308e-02" style="stop-color:#8C2212"/>
		<stop offset="0.2547" style="stop-color:#7F4031"/>
		<stop offset="0.4707" style="stop-color:#697063"/>
		<stop offset="0.7314" style="stop-color:#4CB3A8"/>
		<stop offset="1" style="stop-color:#2AFFF6"/>
	</linearGradient>
	<line class="st12" x1="21.5" y1="23.3" x2="16.5" y2="27.1"/>
	<linearGradient id="SVGID_6_" gradientUnits="userSpaceOnUse" x1="15.9949" y1="25.1825" x2="21.9947" y2="25.1825">
		<stop offset="0" style="stop-color:#940000"/>
		<stop offset="1" style="stop-color:#BF3000"/>
	</linearGradient>
	<path class="st13" d="M16.5,27.6c-0.1,0-0.3-0.1-0.4-0.2c-0.2-0.2-0.1-0.5,0.1-0.7l5-3.8c0.2-0.2,0.5-0.1,0.7,0.1
		c0.2,0.2,0.1,0.5-0.1,0.7l-5,3.8C16.7,27.6,16.6,27.6,16.5,27.6z"/>
</g>
<g>
	<linearGradient id="SVGID_7_" gradientUnits="userSpaceOnUse" x1="19.7882" y1="29.9204" x2="21.495" y2="29.9204">
		<stop offset="0" style="stop-color:#911707"/>
		<stop offset="0.2486" style="stop-color:#9C2112"/>
		<stop offset="0.6899" style="stop-color:#BB3C2E"/>
		<stop offset="1" style="stop-color:#D45346"/>
	</linearGradient>
	<line class="st14" x1="21.5" y1="29.3" x2="19.8" y2="30.6"/>
	<linearGradient id="SVGID_8_" gradientUnits="userSpaceOnUse" x1="19.288" y1="29.92" x2="21.9946" y2="29.92">
		<stop offset="0" style="stop-color:#940000"/>
		<stop offset="1" style="stop-color:#BF3000"/>
	</linearGradient>
	<path class="st15" d="M19.8,31.1c-0.2,0-0.3-0.1-0.4-0.2c-0.2-0.2-0.1-0.5,0.1-0.7l1.7-1.3c0.2-0.2,0.5-0.1,0.7,0.1
		c0.2,0.2,0.1,0.5-0.1,0.7L20.1,31C20,31,19.9,31.1,19.8,31.1z"/>
</g>
<rect x="9.8" y="27.6" transform="matrix(0.8478 0.5303 -0.5303 0.8478 17.0784 -2.0304)" class="st16" width="4.5" height="2.4"/>
</symbol><symbol id="check" viewBox="0 0 32.6 35.4">
<style type="text/css">
	.st0{fill:#CCCCCC;}
	.st1{fill:#5D5D5D;}
	.st2{fill:#E8E8E8;}
	.st3{fill:#1B1919;}
	.st4{fill:none;stroke:#E57565;stroke-linecap:round;stroke-miterlimit:10;}
	.st5{fill:#2A1F30;}
	.st6{fill:#605570;}
	.st7{fill:#938B9E;}
	.st8{fill:#7D728C;}
	.st9{opacity:0.25;}
	.st10{fill:#FFFFFF;}
</style>
<path class="st0" d="M21.4,33.7L3.9,35.3C2.8,35.4,2,34.6,2,33.5l-2-18c0-4,4.5-11.3,5.6-11.4l3.7-0.4l12.9,0.9
	c1.1-0.1,2.1,0.7,2.2,1.8l1.8,21l5.4,1.5C31.8,30.1,24.9,33.4,21.4,33.7z"/>
<path class="st1" d="M28,31.2L7.1,33.1C6,33.2,5,32.3,4.9,31.2L2.7,8.3c-0.1-1.1,1.4-4,3.1-5.7l19.6-1.3c1.1-0.1,2.1,0.7,2.2,1.8
	l4,25.7C31.7,29.9,29.1,31.1,28,31.2z"/>
<path class="st2" d="M30.8,30L9.8,31.9c-1.1,0.1-2.1-0.7-2.2-1.8L6.5,17.1L6,11L5.4,4C5.3,2.9,6.1,1.9,7.2,1.8L28.1,0
	c1.1-0.1,2.1,0.7,2.2,1.8l0.6,7l0.5,6.1l1.1,12.9C32.7,29,31.9,29.9,30.8,30z"/>
<g>
	<path class="st3" d="M11.6,27.6c-0.5,0-0.9-0.4-1-0.9c0-0.6,0.4-1,0.9-1.1l16.8-1.5c0.5-0.1,1,0.4,1.1,0.9c0,0.6-0.4,1-0.9,1.1
		C28.6,26.2,11.7,27.6,11.6,27.6z"/>
</g>
<path class="st4" d="M26.4,8.2"/>
<path class="st4" d="M27.2,8.1"/>
<path class="st4" d="M25.9,7.6"/>
<path class="st4" d="M26.8,7.3"/>
<rect x="9.3" y="4.5" transform="matrix(0.9962 -8.740035e-02 8.740035e-02 0.9962 -1.0476 1.125)" class="st5" width="6" height="16"/>
<path class="st6" d="M29,19.1L10,20.8l0,0c2.6-5.1,2.1-11.3-1.4-15.9l0,0l18.9-1.7l0,0C31,7.8,31.6,14,29,19.1L29,19.1z"/>
<path class="st7" d="M13.2,16.5l11.5-1l0,0c-1.8-2.2-2.1-5.5-0.7-8l0,0l-11.5,1l0,0C11.2,11,11.5,14.2,13.2,16.5L13.2,16.5z"/>
<path class="st8" d="M26.5,15.3l-13,1.1l0,0c1.6-2.5,1.3-5.8-0.7-8l0,0l13-1.1l0,0C27.8,9.5,28.1,12.8,26.5,15.3L26.5,15.3z"/>
<polygon class="st9" points="24.4,24.5 11.5,25.7 12.8,18.5 14,20.4 15.7,16.2 17.8,18.1 19.7,16.9 22,19.7 23.7,16.5 25.9,18.4 "/>
<polygon class="st10" points="26.5,25.3 13.5,26.5 14.8,18.3 16,20.2 17.7,16.1 19.8,17.9 21.7,16.7 24,19.5 25.7,16.4 27.9,18.2 
	"/>
</symbol><symbol id="coffee" viewBox="0 0 33.7 32.5">
<style type="text/css">
	.st0{fill:#547682;}
</style>
<g>
	<path class="st0" d="M33,16.2c-0.6-0.7-1.4-1.1-2.5-1.2c-2.4-0.1-3.7,0.7-4.5,1.6v-3.1c0-0.3-0.2-0.5-0.5-0.5h-24
		C1.2,13,1,13.2,1,13.5v4c0,0.1,0.2,11.5,8.9,14H0.5C0.2,31.5,0,31.7,0,32c0,0.3,0.2,0.5,0.5,0.5h26c0.3,0,0.5-0.2,0.5-0.5
		c0-0.3-0.2-0.5-0.5-0.5h-9.3c1.7-0.5,3.2-1.4,4.4-2.6c0.6-0.6,1.1-1.2,1.6-1.9c4-0.1,7.2-1.9,8.5-3c0.8-0.7,1.4-1.7,1.7-2.8
		C33.8,19.6,34,17.5,33,16.2z M20.9,28.2C19,30.1,16.6,31,13.5,31C2.2,30.9,2,18,2,17.5V14h23v3.5C25,17.6,24.9,24.3,20.9,28.2z
		 M32.4,21c-0.2,0.9-0.7,1.7-1.4,2.3c-1.1,0.9-3.8,2.5-7.2,2.7c1.5-2.7,1.9-5.6,2.1-7.2c0.1-0.4,0.7-2.9,4.6-2.7
		c0.8,0,1.4,0.3,1.7,0.8C33,17.8,32.7,19.9,32.4,21z"/>
	<path class="st0" d="M8.1,9.3c0,1.4,1,2.5,1.1,2.5C9.2,12,9.4,12,9.5,12c0.1,0,0.3,0,0.4-0.1c0.2-0.2,0.2-0.5,0-0.7
		c0,0-0.8-0.8-0.8-1.8c0-0.5,0.3-1,0.8-1.5c0.7-0.6,1.1-1.4,1.1-2.2c0-1.4-1-2.5-1.1-2.5C9.7,2.9,9.3,3,9.1,3.1C9,3.3,9,3.7,9.1,3.9
		c0,0,0.8,0.8,0.8,1.8c0,0.5-0.3,1-0.8,1.5C8.4,7.8,8.1,8.5,8.1,9.3z"/>
	<path class="st0" d="M13.1,6.3c0,1.4,1,2.5,1.1,2.5C14.2,9,14.4,9,14.5,9c0.1,0,0.3,0,0.4-0.1c0.2-0.2,0.2-0.5,0-0.7
		c0,0-0.8-0.8-0.8-1.8c0-0.5,0.3-1,0.8-1.5c0.7-0.6,1.1-1.4,1.1-2.2c0-1.4-1-2.5-1.1-2.5c-0.2-0.2-0.5-0.2-0.7,0
		c-0.2,0.2-0.2,0.5,0,0.7c0,0,0.8,0.8,0.8,1.8c0,0.5-0.3,1-0.8,1.5C13.4,4.8,13.1,5.5,13.1,6.3z"/>
	<path class="st0" d="M17.1,11.8c0.1,0.1,0.2,0.2,0.4,0.2c0.1,0,0.2,0,0.3-0.1c0.7-0.6,1.1-1.4,1.1-2.2c0-1.4-1-2.5-1.1-2.5
		c-0.2-0.2-0.5-0.2-0.7,0c-0.2,0.2-0.2,0.5,0,0.7c0,0,0.8,0.8,0.8,1.8c0,0.5-0.3,1-0.8,1.5C17,11.3,16.9,11.6,17.1,11.8z"/>
</g>
</symbol><symbol id="fastfood" viewBox="0 0 35 35">
<style type="text/css">
	.st0{fill:#547682;}
</style>
<g>
	<path class="st0" d="M34.9,7.2C34.6,6.9,28.7,0,17.5,0C6.3,0,0.4,6.9,0.1,7.2C0,7.3,0,7.6,0.1,7.8l17,27c0.1,0.1,0.3,0.2,0.4,0.2
		s0.3-0.1,0.4-0.2l17-27C35,7.6,35,7.3,34.9,7.2z M17.5,33.6L3.3,11c1.2-1.2,2.9-2.6,5.1-3.7C8.1,7.8,8,8.4,8,9c0,2.2,1.8,4,4,4
		s4-1.8,4-4c0-1.6-1-3-2.3-3.6C14.9,5.1,16.1,5,17.5,5c6.8,0,11.7,3.6,14.2,6L30,13.7c0,0-0.1-0.1-0.1-0.2C28.8,12,27,11,25,11
		c-3.3,0-6,2.7-6,6c0,3,2.3,5.5,5.2,5.9L17.5,33.6z M12,6c1.7,0,3,1.3,3,3s-1.3,3-3,3s-3-1.3-3-3S10.3,6,12,6z M24.8,22
		c-2.7-0.1-4.8-2.3-4.8-5c0-2.8,2.2-5,5-5c1.6,0,3.2,0.8,4.1,2.1c0.1,0.2,0.2,0.3,0.3,0.5L24.8,22z M32.2,10.2
		C29.6,7.6,24.5,4,17.5,4c-7,0-12.1,3.6-14.7,6.2L1.1,7.6C2.3,6.3,8,1,17.5,1C27,1,32.7,6.3,33.9,7.6L32.2,10.2z"/>
	<path class="st0" d="M16.5,24c-1.4,0-2.5,1.1-2.5,2.5s1.1,2.5,2.5,2.5s2.5-1.1,2.5-2.5S17.9,24,16.5,24z M16.5,28
		c-0.8,0-1.5-0.7-1.5-1.5s0.7-1.5,1.5-1.5s1.5,0.7,1.5,1.5S17.3,28,16.5,28z"/>
</g>
</symbol><symbol id="futbolka" viewBox="0 0 36 33">
<style type="text/css">
	.st0{fill:#547682;}
</style>
<path class="st0" d="M25,0c-2.4,1.7-4.8,2.2-6.9,2.2C14,2.2,11,0,11,0L0,8l4,6l4-2v14v1v6h20v-6v-1V12l4,2l4-6C36,8,27.7,2.2,25,0z
	 M27,32H9v-5h18V32z M31.7,12.7l-3.2-1.6C28.3,11,28.2,11,28,11c-0.2,0-0.4,0.1-0.5,0.1C27.2,11.3,27,11.7,27,12v14H9V12
	c0-0.3-0.2-0.7-0.5-0.9C8.4,11.1,8.2,11,8,11c-0.2,0-0.3,0-0.4,0.1l-3.2,1.6l-3-4.5l9.7-7c1.1,0.7,3.8,2,7.1,2c2.4,0,4.7-0.7,6.8-2
	c2.5,2,7.7,5.6,9.7,7L31.7,12.7z"/>
</symbol><symbol id="kassa" viewBox="0 0 32.2 39.9">
<style type="text/css">
	.st0{fill:#CCCCCC;}
	.st1{fill:#5D5D5D;}
	.st2{fill:#E8E8E8;}
	.st3{fill:none;stroke:#E57565;stroke-linecap:round;stroke-miterlimit:10;}
	.st4{fill:#C6C6C6;}
	.st5{fill:#1C9FAC;}
	.st6{fill:#FFFFFF;}
	.st7{fill:#1B1919;}
	.st8{fill:#9E9E9E;}
	.st9{fill:#B5B5B5;}
	.st10{fill:#919191;}
	.st11{fill:#DDA947;}
</style>
<path class="st0" d="M21.8,38.2L4.2,39.9C3.1,40,2.4,39.1,2.3,38L0,16C0,12,4.6,4.7,5.6,4.6l3.7-0.4l12.9,0.9
	c1.1-0.1,2.1,0.7,2.2,1.8l2.2,25l5.4,1.5C32.1,34.6,25.2,37.9,21.8,38.2z"/>
<path class="st1" d="M28.3,35.8L7.4,37.6c-1.1,0.1-2.1-0.7-2.2-1.8L2.7,8.9C2.6,7.8,5.8,3.4,6.9,3l18.4-1.1c1.1-0.1,2.1,0.7,2.2,1.8
	l4.4,29.7C32,34.5,29.4,35.7,28.3,35.8z"/>
<path class="st2" d="M30.4,34.6L9.5,36.4c-1.1,0.1-2.1-0.7-2.2-1.8L5.8,17.6L7,11.5l-0.6-7C6.3,3.4,7.1,2.5,8.2,2.4l20.9-1.8
	c1.1-0.1,2.1,0.7,2.2,1.8l0.6,7l-1.2,6.1l1.5,16.9C32.3,33.5,31.5,34.5,30.4,34.6z"/>
<path class="st3" d="M26.4,8.8"/>
<path class="st3" d="M27.2,8.6"/>
<path class="st3" d="M25.9,8.1"/>
<path class="st3" d="M26.8,7.9"/>
<polygon class="st4" points="30.7,15.5 5.8,17.6 7,11.5 31.9,9.3 "/>
<polygon class="st5" points="29,14 8.3,15.8 8.8,13 29.5,11.2 "/>
<g>
	<line class="st6" x1="18.3" y1="7.1" x2="29.5" y2="6.2"/>
	<path class="st7" d="M18.3,8.1c-0.5,0-0.9-0.4-1-0.9c0-0.6,0.4-1,0.9-1.1l11.2-1c0.5-0.1,1,0.4,1.1,0.9c0,0.6-0.4,1-0.9,1.1
		L18.3,8.1C18.4,8.1,18.4,8.1,18.3,8.1z"/>
</g>
<polygon class="st8" points="27.9,5.3 18.2,6.1 17.7,0.5 18.1,1.5 18.8,0.5 20.2,1.3 21.5,0.2 22.5,1.1 23.9,0 25.2,0.9 26.1,0 
	27,0.7 27.3,0 "/>
<polygon class="st6" points="29,6.2 18.8,7.1 18.4,1.5 19.2,2.4 19.9,1.4 21.2,2.2 22.6,1.1 23.5,2 25,0.9 26.3,1.8 27.2,1 28,1.6 
	28.4,0.9 "/>
<g>
	<line class="st8" x1="10.9" y1="21.2" x2="12.9" y2="21"/>
	<path class="st9" d="M10.9,22.2c-0.5,0-0.9-0.4-1-0.9c0-0.6,0.4-1,0.9-1.1l2-0.2c0.6-0.1,1,0.4,1.1,0.9c0,0.5-0.4,1-0.9,1.1
		L10.9,22.2C10.9,22.2,10.9,22.2,10.9,22.2z"/>
</g>
<g>
	<line class="st8" x1="17.8" y1="20.6" x2="19.8" y2="20.4"/>
	<path class="st9" d="M17.8,21.6c-0.5,0-0.9-0.4-1-0.9c0-0.5,0.4-1,0.9-1.1l2-0.2c0.5-0.1,1,0.4,1.1,0.9c0,0.5-0.4,1-0.9,1.1
		L17.8,21.6C17.9,21.6,17.9,21.6,17.8,21.6z"/>
</g>
<g>
	<line class="st8" x1="24.8" y1="20" x2="26.8" y2="19.8"/>
	<path class="st9" d="M24.8,21c-0.5,0-0.9-0.4-1-0.9c0-0.6,0.4-1,0.9-1.1l2-0.2c0.5,0,1,0.4,1.1,0.9s-0.4,1-0.9,1.1L24.8,21
		C24.9,21,24.8,21,24.8,21z"/>
</g>
<g>
	<line class="st8" x1="11.3" y1="26.2" x2="13.3" y2="26"/>
	<path class="st9" d="M11.3,27.2c-0.5,0-0.9-0.4-1-0.9c0-0.5,0.4-1,0.9-1.1l2-0.2c0.5-0.1,1,0.4,1.1,0.9c0,0.5-0.4,1-0.9,1.1
		L11.3,27.2C11.4,27.2,11.3,27.2,11.3,27.2z"/>
</g>
<g>
	<line class="st8" x1="18.3" y1="25.6" x2="20.3" y2="25.4"/>
	<path class="st9" d="M18.3,26.6c-0.5,0-0.9-0.4-1-0.9c0-0.6,0.4-1,0.9-1.1l2-0.2c0.6,0,1,0.4,1.1,0.9c0,0.6-0.4,1-0.9,1.1
		L18.3,26.6C18.3,26.6,18.3,26.6,18.3,26.6z"/>
</g>
<g>
	<line class="st8" x1="25.2" y1="25" x2="27.2" y2="24.8"/>
	<path class="st9" d="M25.2,26c-0.5,0-0.9-0.4-1-0.9c0-0.6,0.4-1,0.9-1.1l2-0.2c0.6-0.1,1,0.4,1.1,0.9c0,0.6-0.4,1-0.9,1.1L25.2,26
		C25.3,26,25.3,26,25.2,26z"/>
</g>
<g>
	<line class="st8" x1="11.7" y1="31.2" x2="13.7" y2="31"/>
	<path class="st10" d="M11.7,32.2c-0.5,0-0.9-0.4-1-0.9c0-0.5,0.4-1,0.9-1.1l2-0.2c0.6-0.1,1,0.4,1.1,0.9c0,0.5-0.4,1-0.9,1.1
		L11.7,32.2C11.8,32.2,11.8,32.2,11.7,32.2z"/>
</g>
<g>
	<line class="st8" x1="18.7" y1="30.6" x2="20.7" y2="30.4"/>
	<path class="st9" d="M18.7,31.6c-0.5,0-1-0.4-1-0.9c0-0.5,0.4-1,0.9-1.1l2-0.2c0.5-0.1,1,0.4,1.1,0.9s-0.4,1-0.9,1.1L18.7,31.6
		C18.8,31.6,18.7,31.6,18.7,31.6z"/>
</g>
<g>
	<line class="st8" x1="25.7" y1="30" x2="27.7" y2="29.8"/>
	<path class="st11" d="M25.7,31c-0.5,0-1-0.4-1-0.9c0-0.5,0.4-1,0.9-1.1l2-0.2c0.5,0,1,0.4,1.1,0.9c0,0.5-0.4,1-0.9,1.1L25.7,31
		C25.7,31,25.7,31,25.7,31z"/>
</g>
</symbol><symbol id="market" viewBox="0 0 33 30">
<style type="text/css">
	.st0{fill:#181818;}
</style>
<path class="st0" d="M32.5,29h-4V13c4,0,4-4.4,4-6c0-2.1-2.7-5.9-3.2-6.6C29.1,0.2,28.8,0,28.5,0h-23h-1h0h0C4.3,0,4,0.1,3.9,0.2
	C1.4,2.1,0.5,6.6,0.5,6.8c0,0.1,0,0.1,0,0.2c0,2.2,0.9,6,4,6v16h-4C0.2,29,0,29.2,0,29.5S0.2,30,0.5,30h4h24h4
	c0.3,0,0.5-0.2,0.5-0.5S32.8,29,32.5,29z M1.5,7c0,0,0.8-4.4,3-6h0c0.1,0,1,0,1,0h23c0,0,3,4.1,3,6s-0.1,5-3,5s-3-5-3-5s0,5-3,5
	c0,0,0,0,0,0c0,0-3,0-3-5c0,0.4-0.1,5-3,5c-3,0-3-4.8-3-5c0,0.2-0.1,5-3,5c-3,0-3-5-3-5s0,5-3,5S1.5,7,1.5,7z M9.5,12.9
	c0.3,0.1,0.6,0.1,1,0.1c1.4,0,2.4-0.8,3-1.8c0.2,0.3,0.4,0.6,0.6,0.9c0.6,0.6,1.5,1,2.4,1c1.4,0,2.4-0.7,3-1.8
	c1.2,1.8,2.9,1.8,3,1.8c0,0,0,0,0.1,0c0.3,0,0.7,0,1-0.1V25h-14V12.9z M5.5,29V12.9c0.9-0.3,1.5-0.9,2-1.7c0.3,0.5,0.6,0.9,1,1.2V26
	h16V12.3c0.4-0.3,0.7-0.7,1-1.2c0.5,0.8,1.1,1.4,2,1.7V29H5.5z"/>
</symbol><symbol id="store" viewBox="0 0 40 26.3">
<style type="text/css">
	.st0{fill:#D2BE5B;}
</style>
<g>
	<path class="st0" d="M39.8,9.4l-4-6C35.6,3.2,35.3,3,35,3h-3V1V0h-1H9H8v1v2H5C4.7,3,4.4,3.2,4.2,3.4l-4,6C0.1,9.6,0,9.8,0,10
		c0,1.8,1,3,2.5,3c0.5,0,1-0.1,1.4-0.4V25c0,0.7,0.6,1.3,1.3,1.3h29.6c0.7,0,1.3-0.6,1.3-1.3V12.6c0.4,0.2,0.9,0.4,1.4,0.4
		c1.2,0,2.5-0.8,2.5-3C40,9.8,39.9,9.6,39.8,9.4z M9,1h22v2H9V1z M17,25v-6c0,0,0-3,3-3c2.9,0,3,3,3,3v6H17z M34.8,25.3H24V25v-6
		c0-1.6-1.1-4-4-4c-1.2,0-2.1,0.4-2.8,1.1C16,17.2,16,18.8,16,19v6v0.3H5.3C5.1,25.3,5,25.2,5,25V12.6C5.4,12.8,5.9,13,6.4,13
		c0.7,0,1.4-0.3,1.9-0.7c0.5,0.5,1.2,0.7,1.9,0.7c0.7,0,1.4-0.3,1.9-0.7c0.5,0.5,1.2,0.7,1.9,0.7s1.4-0.3,1.9-0.7
		c0.5,0.5,1.2,0.7,1.9,0.7c0.7,0,1.4-0.3,1.9-0.7c0.5,0.5,1.2,0.7,1.9,0.7s1.4-0.3,1.9-0.7c0.5,0.5,1.2,0.7,1.9,0.7
		c0.7,0,1.4-0.3,1.9-0.7c0.5,0.5,1.2,0.7,1.9,0.7c0.7,0,1.4-0.3,1.9-0.7c0.5,0.5,1.2,0.7,1.9,0.7c0.5,0,1-0.1,1.4-0.4V25
		C35.1,25.2,35,25.3,34.8,25.3z M37.5,12c-1.1,0-1.9-0.9-1.9-1.9c0,1.1-0.9,1.9-1.9,1.9s-1.9-0.9-1.9-1.9c0,1.1-0.9,1.9-1.9,1.9
		c-1.1,0-1.9-0.9-1.9-1.9c0,1.1-0.9,1.9-1.9,1.9c-1.1,0-1.9-0.9-1.9-1.9c0,1.1-0.9,1.9-1.9,1.9S20,11.1,20,10c0,1.1-0.9,1.9-1.9,1.9
		c-1.1,0-1.9-0.9-1.9-1.9c0,1.1-0.9,1.9-1.9,1.9s-1.9-0.9-1.9-1.9c0,1.1-0.9,1.9-1.9,1.9c-1.1,0-1.9-0.9-1.9-1.9
		c0,1.1-0.9,1.9-1.9,1.9S4.5,11.1,4.5,10c0,1.1-0.9,1.9-1.9,1.9C1.5,12,1,11.1,1,10l4-6h3h1h22h1h3l4,6C39,11.1,38.6,12,37.5,12z"/>
	<path class="st0" d="M8,22h4v-6H8V22z M9,17h2v4H9V17z"/>
	<path class="st0" d="M28,22h4v-6h-4V22z M29,17h2v4h-2V17z"/>
	<circle class="st0" cx="21" cy="21" r="1"/>
</g>
</symbol></svg>